<svg width="100%" height="100%" overflow="visible" style="display: block;" viewBox="0 0 56 49.0003" fill="none" xmlns="http://www.w3.org/2000/svg">
<g id="Frame 15">
<g id="Back main">
<mask id="path-1-inside-1_0_29" fill="white">
<path d="M18.0029 0C22.3431 0.00011174 26.4677 4.5 30.808 4.5H40C45.6005 4.5 48.4009 4.49991 50.54 5.58984C52.4216 6.54857 53.9514 8.0784 54.9102 9.95996C56.0001 12.0991 56 14.8995 56 20.5V32.833C56 38.4334 56 41.234 54.9102 43.373C53.9515 45.2546 52.4216 46.7844 50.54 47.7432C48.4009 48.8331 45.6005 48.833 40 48.833H16C10.3995 48.833 7.59908 48.8331 5.45996 47.7432C3.57843 46.7844 2.04854 45.2546 1.08984 43.373C4.67655e-06 41.234 0 38.4334 0 32.833V9.33301C0.000179552 4.17861 4.17861 0.000176166 9.33301 0H18.0029Z"/>
</mask>
<path d="M18.0029 0C22.3431 0.00011174 26.4677 4.5 30.808 4.5H40C45.6005 4.5 48.4009 4.49991 50.54 5.58984C52.4216 6.54857 53.9514 8.0784 54.9102 9.95996C56.0001 12.0991 56 14.8995 56 20.5V32.833C56 38.4334 56 41.234 54.9102 43.373C53.9515 45.2546 52.4216 46.7844 50.54 47.7432C48.4009 48.8331 45.6005 48.833 40 48.833H16C10.3995 48.833 7.59908 48.8331 5.45996 47.7432C3.57843 46.7844 2.04854 45.2546 1.08984 43.373C4.67655e-06 41.234 0 38.4334 0 32.833V9.33301C0.000179552 4.17861 4.17861 0.000176166 9.33301 0H18.0029Z" fill="var(--fill-0, #383836)" style="fill:#383836;fill:color(display-p3 0.2196 0.2196 0.2118);fill-opacity:1;"/>
<path d="M18.0029 0L18.003 -1H18.0029V0ZM50.54 5.58984L50.994 4.69884L50.994 4.69884L50.54 5.58984ZM54.9102 9.95996L55.8012 9.50597L55.8012 9.50596L54.9102 9.95996ZM54.9102 43.373L55.8012 43.827L55.8012 43.827L54.9102 43.373ZM50.54 47.7432L50.994 48.6342L50.994 48.6342L50.54 47.7432ZM5.45996 47.7432L5.00595 48.6342L5.00597 48.6342L5.45996 47.7432ZM1.08984 43.373L0.198823 43.827L0.198837 43.827L1.08984 43.373ZM0 9.33301L-1 9.33297V9.33301H0ZM9.33301 0V-1H9.33297L9.33301 0ZM30.808 4.5V5.5H40V4.5V3.5H30.808V4.5ZM40 4.5V5.5C42.8168 5.5 44.8692 5.50075 46.4866 5.63288C48.0924 5.76404 49.181 6.01969 50.086 6.48085L50.54 5.58984L50.994 4.69884C49.76 4.07006 48.3788 3.78079 46.6495 3.63952C44.9317 3.4992 42.7838 3.5 40 3.5V4.5ZM50.54 5.58984L50.086 6.48085C51.7794 7.3437 53.1563 8.72055 54.0192 10.414L54.9102 9.95996L55.8012 9.50596C54.7466 7.43624 53.0638 5.75344 50.994 4.69884L50.54 5.58984ZM54.9102 9.95996L54.0191 10.414C54.4803 11.319 54.736 12.4076 54.8671 14.0134C54.9992 15.6308 55 17.6832 55 20.5H56H57C57 17.7162 57.0008 15.5683 56.8605 13.8505C56.7192 12.1212 56.4299 10.74 55.8012 9.50597L54.9102 9.95996ZM56 20.5H55V32.833H56H57V20.5H56ZM56 32.833H55C55 35.6497 54.9992 37.7022 54.8671 39.3196C54.7359 40.9253 54.4803 42.014 54.0191 42.9191L54.9102 43.373L55.8012 43.827C56.4299 42.593 56.7192 41.2118 56.8604 39.4824C57.0008 37.7647 57 35.6167 57 32.833H56ZM54.9102 43.373L54.0191 42.9191C53.1563 44.6124 51.7794 45.9893 50.086 46.8522L50.54 47.7432L50.994 48.6342C53.0637 47.5796 54.7466 45.8968 55.8012 43.827L54.9102 43.373ZM50.54 47.7432L50.086 46.8522C49.181 47.3133 48.0924 47.569 46.4866 47.7001C44.8692 47.8323 42.8168 47.833 40 47.833V48.833V49.833C42.7838 49.833 44.9318 49.8338 46.6495 49.6935C48.3788 49.5522 49.76 49.2629 50.994 48.6342L50.54 47.7432ZM40 48.833V47.833H16V48.833V49.833H40V48.833ZM16 48.833V47.833C13.1832 47.833 11.1308 47.8323 9.51337 47.7001C7.90765 47.569 6.81903 47.3133 5.91395 46.8522L5.45996 47.7432L5.00597 48.6342C6.24001 49.2629 7.62115 49.5522 9.35054 49.6935C11.0683 49.8338 13.2162 49.833 16 49.833V48.833ZM5.45996 47.7432L5.91397 46.8522C4.22057 45.9893 2.84367 44.6124 1.98085 42.9191L1.08984 43.373L0.198837 43.827C1.25342 45.8968 2.93629 47.5796 5.00595 48.6342L5.45996 47.7432ZM1.08984 43.373L1.98086 42.9191C1.51974 42.014 1.26409 40.9253 1.13291 39.3196C1.00078 37.7022 1 35.6497 1 32.833H0H-1C-1 35.6167 -1.00078 37.7647 -0.860447 39.4824C-0.719166 41.2118 -0.429892 42.593 0.198823 43.827L1.08984 43.373ZM0 32.833H1V9.33301H0H-1V32.833H0ZM0 9.33301L1 9.33304C1.00016 4.7309 4.7309 1.00016 9.33304 1L9.33301 0L9.33297 -1C3.62632 -0.999805 -0.999801 3.62632 -1 9.33297L0 9.33301ZM9.33301 0V1H18.0029V0V-1H9.33301V0ZM18.0029 0L18.0029 1C19.8759 1.00005 21.7607 1.97658 23.936 3.13303C25.9931 4.22656 28.3407 5.5 30.808 5.5V4.5V3.5C28.935 3.5 27.0502 2.5235 24.8748 1.36706C22.8178 0.27353 20.4702 -0.999936 18.003 -1L18.0029 0Z" fill="var(--stroke-0, #7D7D78)" style="fill:#7D7D78;fill:color(display-p3 0.4902 0.4902 0.4706);fill-opacity:1;" mask="url(#path-1-inside-1_0_29)"/>
</g>
<g id="Paper">
<path d="M12.2692 11.9323C11.8792 9.75784 13.3257 7.67894 15.5002 7.28891L43.8401 2.20563C46.0145 1.8156 48.0934 3.26215 48.4835 5.43659L53.2236 31.8633C53.6136 34.0378 52.1671 36.1167 49.9926 36.5067L21.6527 41.59C19.4782 41.98 17.3993 40.5335 17.0093 38.359L12.2692 11.9323Z" fill="var(--fill-0, #869631)" style="fill:#869631;fill:color(display-p3 0.5255 0.5882 0.1922);fill-opacity:1;"/>
</g>
<g id="Paper_2" filter="url(#filter0_d_0_29)">
<path d="M3.07171 13.305C2.84495 11.1076 4.44253 9.14235 6.64001 8.9156L35.2802 5.96026C37.4776 5.73351 39.4429 7.33109 39.6696 9.52856L42.2716 34.7448C42.4984 36.9423 40.9008 38.9075 38.7033 39.1342L10.0632 42.0896C7.86571 42.3163 5.90049 40.7188 5.67373 38.5213L3.07171 13.305Z" fill="var(--fill-0, #A8B94D)" style="fill:#A8B94D;fill:color(display-p3 0.6588 0.7255 0.3020);fill-opacity:1;"/>
</g>
<g clip-path="url(#pocketClip_29)" filter="url(#paperBlur_29)">
<path d="M12.2692 11.9323C11.8792 9.75784 13.3257 7.67894 15.5002 7.28891L43.8401 2.20563C46.0145 1.8156 48.0934 3.26215 48.4835 5.43659L53.2236 31.8633C53.6136 34.0378 52.1671 36.1167 49.9926 36.5067L21.6527 41.59C19.4782 41.98 17.3993 40.5335 17.0093 38.359L12.2692 11.9323Z" fill="#869631"/>
<path d="M3.07171 13.305C2.84495 11.1076 4.44253 9.14235 6.64001 8.9156L35.2802 5.96026C37.4776 5.73351 39.4429 7.33109 39.6696 9.52856L42.2716 34.7448C42.4984 36.9423 40.9008 38.9075 38.7033 39.1342L10.0632 42.0896C7.86571 42.3163 5.90049 40.7188 5.67373 38.5213L3.07171 13.305Z" fill="#A8B94D"/>
</g>
<rect id="Front main" data-figma-bg-blur-radius="8" x="0.5" y="12.167" width="55" height="36.3333" rx="9.5" fill="var(--fill-0, #383836)" fill-opacity="0.92" stroke="var(--stroke-0, #7D7D78)" style="fill:#383836;fill:color(display-p3 0.2200 0.2200 0.2112);fill-opacity:0.92;stroke:#7D7D78;stroke:color(display-p3 0.4902 0.4902 0.4706);stroke-opacity:1;"/>
</g>
<defs>
<clipPath id="pocketClip_29"><rect x="0.5" y="12.167" width="55" height="36.3333" rx="9.5"/></clipPath>
<filter id="paperBlur_29" x="-20%" y="-20%" width="140%" height="140%"><feGaussianBlur stdDeviation="2.4"/></filter>
<filter id="filter0_d_0_29" x="1.66113" y="3.54969" width="42.0211" height="38.9505" filterUnits="userSpaceOnUse" color-interpolation-filters="sRGB">
<feFlood flood-opacity="0" result="BackgroundImageFix"/>
<feColorMatrix in="SourceAlpha" type="matrix" values="0 0 0 0 0 0 0 0 0 0 0 0 0 0 0 0 0 0 127 0" result="hardAlpha"/>
<feOffset dy="-1"/>
<feGaussianBlur stdDeviation="0.5"/>
<feComposite in2="hardAlpha" operator="out"/>
<feColorMatrix type="matrix" values="0 0 0 0 0 0 0 0 0 0 0 0 0 0 0 0 0 0 0.25 0"/>
<feBlend mode="normal" in2="BackgroundImageFix" result="effect1_dropShadow_0_29"/>
<feBlend mode="normal" in="SourceGraphic" in2="effect1_dropShadow_0_29" result="shape"/>
</filter>
<clipPath id="bgblur_0_0_29_clip_path" transform="translate(8 -3.66699)"><rect x="0.5" y="12.167" width="55" height="36.3333" rx="9.5"/>
</clipPath></defs>
</svg>
