<svg width="28" height="24" viewBox="0 0 28 24" fill="none" xmlns="http://www.w3.org/2000/svg">
<path d="M8.14844 0.5H19.8516C20.3849 0.500107 20.8777 0.783538 21.1465 1.24414L22.3184 3.25195L26.3926 10.2363C27.0283 11.3261 27.0283 12.6739 26.3926 13.7637L22.3184 20.748L21.1465 22.7559C20.8777 23.2165 20.3849 23.4999 19.8516 23.5H8.14844C7.61514 23.4999 7.12231 23.2165 6.85352 22.7559L1.01953 12.7559C0.747129 12.2888 0.747129 11.7112 1.01953 11.2441L6.85352 1.24414C7.12231 0.783538 7.61514 0.500107 8.14844 0.5ZM8.5625 2.75684L3.5625 11.7568L3.42773 12L3.5625 12.2432L8.5625 21.2432L8.70605 21.5H19.1201L18.6816 20.748L13.5781 12L18.6816 3.25195L19.1201 2.5H8.70605L8.5625 2.75684Z" stroke="#383836" style="stroke:#383836;stroke:color(display-p3 0.2196 0.2196 0.2118);stroke-opacity:1;"/>
</svg>
