<svg width="28" height="24" viewBox="0 0 28 24" fill="none" xmlns="http://www.w3.org/2000/svg">
<path fill-rule="evenodd" clip-rule="evenodd" d="M19.8513 0C20.5626 0 21.2204 0.377823 21.5788 0.992258L22.75 3L27.4122 10.9923C27.7754 11.615 27.7754 12.385 27.4122 13.0077L22.75 21L21.5788 23.0077C21.2204 23.6222 20.5626 24 19.8513 24H8.14874C7.43741 24 6.7796 23.6222 6.42118 23.0077L0.587849 13.0077C0.224593 12.385 0.224593 11.615 0.58785 10.9923L6.42118 0.992257C6.7796 0.377822 7.43741 0 8.14874 0H19.8513ZM4 12L9 21H18.25L13 12L18.25 3H9L4 12Z" fill="url(#paint0_linear_124_1612)"/>
<path fill-rule="evenodd" clip-rule="evenodd" d="M9 21L4 12H13L18.25 21H9Z" fill="#1E1E1E" style="fill:#1E1E1E;fill:color(display-p3 0.1176 0.1176 0.1176);fill-opacity:1;"/>
<path fill-rule="evenodd" clip-rule="evenodd" d="M13 12H4L9 3H18.25L13 12Z" fill="#4F4F4C" style="fill:#4F4F4C;fill:color(display-p3 0.3098 0.3098 0.2980);fill-opacity:1;"/>
<defs>
<linearGradient id="paint0_linear_124_1612" x1="9" y1="3" x2="24.8756" y2="17" gradientUnits="userSpaceOnUse">
<stop stop-color="#BECF5D" style="stop-color:#BECF5D;stop-color:color(display-p3 0.7451 0.8118 0.3647);stop-opacity:1;"/>
<stop offset="1" stop-color="#92A143" style="stop-color:#92A143;stop-color:color(display-p3 0.5721 0.6300 0.2622);stop-opacity:1;"/>
</linearGradient>
</defs>
</svg>
