<svg preserveAspectRatio="none" width="100%" height="100%" overflow="visible" style="display: block;" viewBox="0 0 40 49.627" fill="none" xmlns="http://www.w3.org/2000/svg">
<g id="aicanvas-newbe">
<path id="Vector" d="M20.3357 4.84041C20.4293 5.14782 19.948 6.26069 19.7919 6.57915C20.6733 6.15652 20.9477 5.8668 22.0153 5.81027C21.6779 6.01811 21.5211 6.14661 21.2297 6.40894C24.1432 6.02317 25.8418 7.88486 28.8489 6.04483C28.5621 6.78013 28.2948 7.11908 27.7509 7.66234C28.6348 7.58993 29.4352 7.58191 30.3096 7.7765C29.7543 7.91665 29.2795 8.07336 28.7639 8.31646C29.1074 8.45441 29.4803 8.66159 29.8156 8.76552C29.9283 8.80044 30.3641 8.81004 30.5209 8.84125C31.8328 9.10266 32.9308 9.81947 33.701 10.8836C32.9483 10.622 32.6655 10.5384 31.8735 10.4889C33.0311 11.5006 32.9102 12.5437 34.7433 13.064C34.0591 13.3245 33.5867 13.2864 32.8889 13.2176C33.6337 14.1834 34.0397 15.1619 33.9174 16.4106C33.5363 15.7442 33.2758 15.4349 32.6348 15.0093C32.863 15.9573 32.9793 16.6488 32.7658 17.6268C32.6447 17.3232 32.5366 17.1079 32.384 16.8213C32.3307 17.0862 32.2617 17.3477 32.1776 17.6046C32.0245 18.0752 31.8958 18.2815 31.9968 18.7652C32.0194 18.8726 31.8759 19.2817 31.8333 19.4153C32.1786 19.5101 33.452 19.8665 33.6671 20.1151C33.7376 20.3221 33.6589 20.7412 33.6191 20.9644C33.5213 21.053 33.4408 21.1351 33.349 21.23C33.1624 22.0548 32.8875 23.6513 32.3426 24.3357C32.0981 24.6424 31.3723 24.6434 30.9764 24.6429L30.9749 24.7285C30.9551 25.7859 30.3169 26.6047 30.0216 27.5631C29.8658 28.0683 29.7146 28.8535 29.5966 29.3895C29.3858 30.3059 29.1915 31.2265 29.0139 32.15C28.574 34.5218 28.9117 34.8152 26.2413 34.7287C26.0928 35.4472 25.9491 36.1666 25.8103 36.8868C26.2197 37.2854 26.7915 37.6809 27.1685 38.1074C27.3674 38.3323 27.2044 38.8348 27.1428 39.1554C26.9773 39.1559 26.8763 39.17 26.7111 39.1927C26.7603 38.9199 26.8073 38.6684 26.8356 38.3926C26.7053 38.2419 26.1955 37.7984 26.0342 37.6635C25.9002 38.1718 25.764 38.2252 25.4362 38.609C25.2029 38.8823 24.9735 39.1586 24.7474 39.4375C25.6343 35.5331 23.4129 39.4546 21.8099 40.3009C18.2553 35.65 12.32 34.3153 16.3782 42.26C15.5723 41.2617 14.7834 40.3694 13.7738 39.5787C12.7908 38.8091 11.939 38.1602 10.7256 37.7836C10.4594 37.701 9.9692 37.4832 9.69606 37.4897C8.37107 37.5212 7.03985 37.7538 5.72234 37.9007C6.98286 36.8771 8.27064 35.8085 9.47478 34.7215C10.1783 34.0863 10.8486 33.3688 11.5039 32.6826C11.7288 30.2744 11.9527 27.9576 12.1432 25.5434C11.4368 25.0374 10.8981 24.2433 10.5172 23.4687C10.2366 22.898 10.0784 22.2145 10.0962 21.5784C10.1074 21.1792 10.1604 20.9477 10.0701 20.5509C9.97981 20.1445 9.865 19.7438 9.72627 19.3513C9.14262 17.7247 8.94565 17.6632 9.5566 15.9322C8.97841 16.1726 8.80397 16.2359 8.1864 16.3412C9.17334 15.3917 9.25715 14.6814 9.83244 13.5055C10.1161 12.9258 10.5947 12.371 11.0489 11.918C10.6505 11.9277 10.3261 12.0039 9.95164 12.1221C10.4538 11.389 11.1489 11.0448 12.0203 10.9912C11.4562 10.4131 11.1871 10.2246 10.4878 9.83093C11.4204 9.6266 11.8662 9.77304 12.5958 10.3697C12.5431 9.6322 12.6785 9.19014 13.2115 8.67434C13.5677 8.32959 13.5509 8.23506 13.6894 7.80271C13.8623 7.26307 14.3041 6.8771 14.8181 6.64511C14.2873 7.49717 14.1628 7.97675 14.1711 8.97043C14.6276 8.36712 15.1692 7.76455 15.8086 7.34984C17.4429 6.28996 18.9612 6.40931 20.3357 4.84041Z" fill="var(--fill-0, #1A1A19)" style="fill:#1A1A19;fill:color(display-p3 0.1020 0.1020 0.0980);fill-opacity:1;"/>
<path id="Vector_2" d="M11.7881 18.7335C12.3001 18.6969 12.7418 19.1409 13.0979 19.4702C13.2522 19.6503 13.8445 20.1537 13.9272 20.3536C14.2679 21.1774 14.555 22.2598 14.8758 23.0785C15.3235 23.2123 15.7851 23.3171 16.2416 23.4165C15.9529 22.5382 15.9474 22.5655 15.9914 21.636C16.0186 21.0836 16.0522 20.5315 16.092 19.9799C16.8579 19.7477 17.6275 19.5276 18.4005 19.3197C18.4976 19.3863 18.5615 19.4525 18.646 19.5332C18.7382 20.4388 18.7543 21.6473 18.9682 22.5006C19.0487 22.822 19.1849 23.0739 19.4773 23.2447C20.3028 23.7265 23.4045 23.9644 24.3271 23.7151C24.4744 23.6753 24.6323 23.6125 24.744 23.5058C25.1455 23.1224 25.5011 22.0493 25.6761 21.5089C25.7512 21.2772 25.81 21.0075 25.938 20.7992C26.0511 20.6151 26.2682 20.5017 26.4739 20.4537C26.7692 20.3849 27.0197 20.4413 27.2719 20.6007C27.4452 21.8519 27.9934 23.1802 28.5468 24.3058C27.8149 25.1108 27.2388 24.4522 26.5221 24.4512C26.2885 24.451 25.1375 24.8205 24.8504 24.909C24.8765 25.0049 24.9047 25.0827 24.9703 25.1598C25.1385 25.3568 26.3438 26.2396 26.6263 26.4181C26.7271 26.4816 26.8724 26.5689 26.9948 26.5335C27.356 26.4288 28.7227 24.751 28.9325 24.4108C29.0769 24.4403 29.2218 24.4684 29.3669 24.4949C29.7047 24.5581 30.1395 24.594 30.4819 24.6228L30.4824 24.664C30.4877 25.5528 29.8411 26.3896 29.5695 27.1977C29.4057 27.6847 29.2528 28.553 29.1464 29.0807C28.9563 29.9931 28.7714 30.9066 28.5919 31.8211C28.4993 32.3176 28.3823 33.5229 28.134 33.8981C28.022 34.0672 27.8546 34.1656 27.6584 34.2048C27.3422 34.2681 23.1996 34.0088 22.9128 33.9133C22.6295 33.8188 22.3482 33.6475 22.0865 33.5048C21.693 33.2898 21.3007 33.0727 20.9097 32.8532C19.9521 32.3179 19.0009 31.771 18.0562 31.2129C17.6095 30.9478 17.1696 30.6818 16.7272 30.406C16.1874 30.0699 16.1414 29.6517 16.0091 29.0718C15.9461 28.7951 15.8891 28.5232 15.8304 28.2496C15.6059 27.1965 15.3922 26.1412 15.1894 25.0837C14.7147 24.6187 14.073 24.1142 13.6357 23.6187C13.7112 23.3617 13.9014 22.9644 14.0077 22.6837C13.5745 22.0121 12.3382 20.3219 11.6497 19.9431C11.169 20.2035 10.7751 21.0101 10.5343 21.4899C10.5488 20.5431 10.7907 19.1045 11.7881 18.7335Z" fill="var(--fill-0, #D4D4CC)" style="fill:#D4D4CC;fill:color(display-p3 0.8314 0.8314 0.8000);fill-opacity:1;"/>
<path id="Vector_3" d="M25.5239 27.9009C25.959 27.8864 26.1834 27.9838 26.5681 28.0192C27.4672 28.1015 27.6705 28.0027 28.0637 28.9169C27.8287 28.8188 27.6179 28.6516 27.4016 28.5634C27.1583 28.4643 26.751 28.481 26.4811 28.4461C26.2069 28.4107 25.9329 28.371 25.6574 28.3441C25.0946 28.2729 24.5233 28.3252 23.9829 28.4975C23.571 28.632 23.4159 28.7207 22.9806 28.7655C23.8257 28.0957 24.4627 27.9753 25.5239 27.9009Z" fill="var(--fill-0, #1A1A19)" style="fill:#1A1A19;fill:color(display-p3 0.1020 0.1020 0.0980);fill-opacity:1;"/>
<path id="Vector_4" d="M25.2838 29.4484C25.7904 29.4113 26.7293 29.4847 27.1896 29.7132L27.0367 30.0757C26.886 30.0738 26.7007 30.0529 26.5478 30.0394L24.5454 29.8853C24.7838 29.697 24.9832 29.508 25.2838 29.4484Z" fill="var(--fill-0, #1A1A19)" style="fill:#1A1A19;fill:color(display-p3 0.1020 0.1020 0.0980);fill-opacity:1;"/>
<path id="Vector_5" d="M20.5499 11.4483C20.9455 11.509 21.3267 11.6386 21.7054 11.7565C23.2005 12.2219 24.1506 12.9403 25.1964 14.0726C25.216 13.4539 25.1797 12.8348 25.0878 12.2227C26.3402 13.3518 27.2712 13.7599 28.7089 14.5703C28.5885 14.2156 28.4499 13.8863 28.3072 13.5408C28.6486 13.8178 29.529 14.2771 29.9247 14.4665C29.7078 14.1085 29.507 13.741 29.3226 13.3653C29.7483 13.6746 30.2016 13.9626 30.6323 14.2721C30.6895 14.6181 30.8269 15.1481 30.9064 15.5012C31.0624 16.1956 31.2097 16.892 31.3485 17.5901C31.4035 17.867 31.5823 18.6089 31.5123 18.8542L31.4849 18.8691C31.4045 18.6562 31.2802 18.3077 31.1736 18.1189L31.1578 18.0913C30.1083 17.7949 29.5998 17.7385 28.9277 16.7458C28.5483 17.5176 28.1621 18.2761 27.7958 19.0549C27.6955 19.2589 27.5939 19.4522 27.5208 19.6677C27.0219 19.4646 26.6566 19.496 26.1466 19.578C26.0267 19.1156 26.1337 18.8361 25.5513 18.5996C25.3408 18.5141 25.1288 18.4338 24.9044 18.3839C22.9038 17.9385 20.7848 17.8126 18.7501 18.0616C18.6252 18.0769 18.4244 18.2663 18.2835 18.2915C17.5864 18.5429 16.8898 18.7947 16.1928 19.0456C16.2045 18.898 16.243 18.2833 16.2974 18.1989C16.7597 17.4832 17.5483 16.5687 18.0834 15.9145C18.0433 15.4977 17.9498 14.9912 17.8832 14.5727C17.7739 13.9127 17.6803 13.2502 17.6025 12.5858C18.1598 13.0928 18.798 13.5927 19.4812 13.9175C19.2468 13.4271 18.9894 12.9014 18.8406 12.3784C19.8559 12.8317 20.5922 13.0346 21.6078 13.5776C21.2754 12.8153 20.9278 12.1825 20.5499 11.4483Z" fill="var(--fill-0, #D4D4CC)" style="fill:#D4D4CC;fill:color(display-p3 0.8314 0.8314 0.8000);fill-opacity:1;"/>
<path id="Vector_6" d="M26.2743 15.8488L26.291 15.8518C26.3445 16.0289 26.0613 16.683 25.9687 16.8611C25.4655 17.8299 22.5455 17.2003 21.6246 17.2581C20.9208 17.3022 20.2497 17.533 19.5813 17.7398C19.5149 17.7616 19.5454 17.7635 19.4873 17.7471C19.625 17.3901 20.9264 16.4444 21.3134 16.4182C21.5411 16.4029 22.1956 16.4583 22.4649 16.4726C23.9333 16.5504 24.9396 16.471 26.2743 15.8488Z" fill="var(--fill-0, #1A1A19)" style="fill:#1A1A19;fill:color(display-p3 0.1020 0.1020 0.0980);fill-opacity:1;"/>
<path id="Vector_7" d="M20.8657 18.5719C21.754 18.5037 24.3215 18.7032 25.0801 19.1213C25.2153 19.1957 25.3265 19.2889 25.3662 19.443C25.5462 20.1408 24.8799 22.266 24.4889 22.8939C24.3489 23.119 24.1778 23.1728 23.934 23.2298C23.9181 23.2328 23.9021 23.2356 23.8861 23.2382C23.003 23.3778 20.4942 23.1706 19.7776 22.7243C19.2239 22.3794 19.3429 19.4426 19.7927 18.9066C20.0575 18.5911 20.5113 18.5983 20.8657 18.5719Z" fill="var(--fill-0, #D4D4CC)" style="fill:#D4D4CC;fill:color(display-p3 0.8314 0.8314 0.8000);fill-opacity:1;"/>
<path id="Vector_8" d="M22.7976 18.9348C23.1093 18.9121 23.5734 18.8804 23.8082 19.1172C24.0838 19.3951 24.1742 19.922 24.1833 20.295C23.5713 19.3528 23.3062 19.2012 22.1544 19.3988C21.4612 19.5387 21.1002 19.7723 20.5112 20.1249C20.5345 20.0924 20.5588 20.0607 20.5842 20.0299C21.1548 19.3378 21.9152 19.0206 22.7976 18.9348Z" fill="var(--fill-0, #1A1A19)" style="fill:#1A1A19;fill:color(display-p3 0.1020 0.1020 0.0980);fill-opacity:1;"/>
<path id="Vector_9" d="M22.1666 20.2596C22.8302 20.2267 22.9289 21.0548 22.3649 21.3006C21.7072 21.3247 21.5973 20.522 22.1666 20.2596Z" fill="var(--fill-0, #1A1A19)" style="fill:#1A1A19;fill:color(display-p3 0.1020 0.1020 0.0980);fill-opacity:1;"/>
<path id="Vector_10" d="M28.8802 19.6315C29.6828 19.559 31.9091 19.8737 32.5378 20.3182L32.1899 20.4458C32.2316 20.7057 32.252 20.9744 32.2762 21.2369C32.3658 21.2268 32.4661 21.2099 32.5563 21.1969C32.5572 21.3542 32.6132 21.6225 32.6108 21.732C32.6013 22.1673 32.2343 23.8548 31.8333 23.9988C31.0895 24.2661 29.498 24.0463 28.7542 23.8331C28.6977 23.7222 28.6432 23.6053 28.5892 23.4929C28.194 22.6678 28.091 21.69 28.2176 20.6652C28.5114 20.4497 29.0129 20.1796 29.387 20.2931C29.7722 20.41 29.9871 20.9141 30.1553 21.2418C30.1686 20.8567 30.1354 20.3945 29.8558 20.0974C29.7274 19.9601 29.5472 19.8833 29.3592 19.8856C28.9265 19.8901 28.5156 20.3133 28.2314 20.5986C28.3205 20.0959 28.3186 19.7648 28.8802 19.6315Z" fill="var(--fill-0, #D4D4CC)" style="fill:#D4D4CC;fill:color(display-p3 0.8314 0.8314 0.8000);fill-opacity:1;"/>
<path id="Vector_11" d="M31.1697 19.9792C31.3321 20.0119 31.4849 20.0544 31.6443 20.0974L31.4757 20.6159L32.0727 20.4776C32.1093 20.7462 32.125 20.9947 32.1367 21.2648C31.8188 21.3342 31.4997 21.3981 31.1797 21.4562C30.8364 22.3958 30.839 22.2566 30.9192 23.2442C30.9483 23.4849 30.9614 23.7326 30.9776 23.9748L30.5059 23.9612C30.4909 23.4448 30.3918 22.8974 30.3872 22.3907C30.385 22.1624 30.6251 21.5512 30.7101 21.3071L31.1697 19.9792Z" fill="var(--fill-0, #1A1A19)" style="fill:#1A1A19;fill:color(display-p3 0.1020 0.1020 0.0980);fill-opacity:1;"/>
<path id="Vector_12" d="M28.7344 21.1051C29.2989 21.0722 29.2729 21.8108 28.8574 22.0572C28.3377 22.0582 28.329 21.3632 28.7344 21.1051Z" fill="var(--fill-0, #1A1A19)" style="fill:#1A1A19;fill:color(display-p3 0.1020 0.1020 0.0980);fill-opacity:1;"/>
<path id="Vector_13" d="M28.6135 17.8337C28.7898 18.0025 29.0001 18.1983 29.2162 18.3124C30.0853 18.7721 30.8041 18.4283 31.4096 19.3072C31.2695 19.2889 31.121 19.2579 30.9815 19.2314C30.1975 19.1053 28.9328 18.8803 28.1829 19.1009L28.6135 17.8337Z" fill="var(--fill-0, #D4D4CC)" style="fill:#D4D4CC;fill:color(display-p3 0.8314 0.8314 0.8000);fill-opacity:1;"/>
<path id="Vector_14" d="M18.512 39.1598C19.2875 39.0263 21.2976 40.3682 21.9116 40.8187C22.0809 41.7698 22.0521 42.0918 21.9154 43.0425C21.5168 43.3538 21.1116 43.6347 20.6964 43.9218C20.2906 44.1731 19.108 44.9202 18.6438 44.7855C18.5703 44.7065 18.5466 44.6379 18.5095 44.539C17.9684 43.0984 17.8625 40.5706 18.512 39.1598Z" fill="var(--fill-0, #1A1A19)" style="fill:#1A1A19;fill:color(display-p3 0.1020 0.1020 0.0980);fill-opacity:1;"/>
<path id="Vector_15" d="M26.8557 39.2848C26.9439 39.2756 27.0336 39.2613 27.1079 39.3027C27.3086 39.5754 27.3919 40.7714 27.4064 41.1373C28.1471 41.8936 28.9769 42.6022 29.7427 43.3553C28.9039 42.915 28.282 42.5794 27.3541 42.3998C27.2635 43.0311 27.1188 43.6531 26.9219 44.2596C26.8889 44.3679 26.8 44.7588 26.6539 44.7295C25.6926 44.5366 24.5672 43.6703 23.8288 43.0691C24.1638 42.3257 24.1298 41.5682 23.8939 40.8085C24.802 40.1632 25.7575 39.5397 26.8557 39.2848Z" fill="var(--fill-0, #1A1A19)" style="fill:#1A1A19;fill:color(display-p3 0.1020 0.1020 0.0980);fill-opacity:1;"/>
<path id="Vector_16" d="M22.6132 40.6241C22.8295 40.6246 23.5734 40.6042 23.67 40.7118C24.1092 41.2018 24.0004 42.5266 23.695 43.0732C23.6181 43.2109 23.3075 43.2143 23.1919 43.2223C22.8193 43.2407 22.5617 43.2293 22.1912 43.1985C22.122 43.1561 22.07 43.1106 22.0075 43.0594C22.1259 42.5496 22.2028 42.0281 22.1428 41.5042C22.0662 40.8359 21.7618 40.6525 22.6132 40.6241Z" fill="var(--fill-0, #1A1A19)" style="fill:#1A1A19;fill:color(display-p3 0.1020 0.1020 0.0980);fill-opacity:1;"/>
</g>
</svg>
