<svg preserveAspectRatio="none" width="100%" height="100%" overflow="visible" style="display: block;" viewBox="0 0 40 50" fill="none" xmlns="http://www.w3.org/2000/svg">
<g id="aicanvas-Superhero">
<path id="Vector" d="M26.9577 3.53733C27.0223 3.54238 27.0868 3.54876 27.1512 3.55647C28.4491 3.71458 30.288 4.79258 31.0807 5.8543C32.0549 7.15945 32.4566 8.72546 32.2584 10.331C32.8893 9.09004 32.7619 8.06665 32.4237 6.79504C32.5386 6.96741 32.6419 7.1471 32.7334 7.33298C33.2122 8.30252 33.4353 9.60679 33.2979 10.6828C33.2456 11.0924 33.1248 11.4955 32.9935 11.8851C33.7084 12.8868 33.7093 13.7188 33.5465 14.9088C33.5114 15.1661 33.4096 15.529 33.4616 15.7747C33.7091 16.9446 34.1064 18.0728 34.3824 19.2359C34.1435 19.8659 33.774 20.4298 33.4999 21.0425C33.4699 21.1098 33.4455 21.2479 33.4526 21.3215C33.5319 22.1345 33.6918 22.9429 33.7101 23.7619C33.7503 24.7273 33.3208 25.4983 32.922 26.3423C32.7985 26.6035 32.6531 26.8545 32.5745 27.1338C32.1537 28.9316 31.7877 30.7463 31.4699 32.5652C31.343 33.2969 31.3066 34.0903 31.1444 34.8123C30.9496 35.5962 30.3568 35.9055 29.5912 35.9324C29.1348 35.9482 28.6987 35.9575 28.2482 35.9595L27.8306 38.8677C27.7437 39.4573 27.6029 40.25 27.5724 40.8249C27.9314 41.2935 28.2545 41.698 28.6785 42.1099C29.5348 42.9419 30.4205 43.7185 31.2625 44.5669C30.9386 44.3833 30.6045 44.218 30.2621 44.0715C28.8532 43.4795 27.766 43.3887 26.3326 43.9753C26.7212 41.8696 27.1512 39.532 27.4211 37.4175C26.6287 38.4126 25.609 39.8147 25.0704 40.9761C24.9247 41.2903 24.6497 42.835 24.5716 43.2573C24.4078 44.145 24.2136 45.1257 24.0722 46.0193C23.6797 45.6343 23.1955 44.9922 22.787 44.5723C22.6353 44.4163 21.8997 43.6572 21.8249 43.5388C21.5522 43.1072 21.2069 42.4756 20.9404 42.0129L19.1843 38.9761C17.5462 36.1274 15.8874 33.2908 14.2079 30.4663L14.3097 31.4668C14.6327 34.5203 15.2585 37.895 15.793 40.9365C15.3657 40.6929 14.9185 40.4004 14.4877 40.1453C13.2342 39.3953 11.9699 38.699 10.6121 38.1531C9.77852 37.8179 9.53364 37.8181 8.64239 37.9004C7.64149 37.9927 6.68207 38.1511 5.69059 38.3057C6.88605 37.2385 8.14164 36.2456 9.31658 35.1404C10.0498 34.4509 10.6196 33.8306 11.2917 33.0862C11.514 31.5349 11.6127 29.915 11.7719 28.353C11.8621 27.469 11.9362 26.5315 11.9675 25.6448C10.8972 24.7166 10.0131 23.3702 9.93471 21.9319C9.88563 21.0308 10.119 19.6411 10.7171 18.9506C10.4965 18.1138 9.51624 14.5118 9.6563 13.8943C9.71619 13.6303 9.89879 13.3664 10.0334 13.1322C10.782 11.8297 11.8105 10.73 13.0915 9.94136C12.2589 9.87859 11.6533 9.77393 10.8533 9.53528C11.1382 9.51909 11.4294 9.48018 11.7113 9.44133C15.156 8.9667 18.4265 7.52315 21.9294 7.36677C22.8288 7.32661 23.6462 7.39251 24.5393 7.48208C24.0849 7.21057 23.6271 6.98687 23.1146 6.84683C21.2679 6.34221 18.082 6.61777 16.1517 6.86252C17.5346 5.86057 20.348 5.04077 22.0576 4.80381C22.6872 4.71274 23.3238 4.68005 23.9594 4.70613C25.7091 4.76668 27.5058 5.26458 28.9193 6.32688C29.3586 6.65693 29.7125 7.00899 30.0854 7.40867C29.622 6.19544 29.2849 5.66233 28.3373 4.75093C27.8353 4.26829 27.508 3.98484 26.9577 3.53733Z" fill="var(--fill-0, #1A1A19)" style="fill:#1A1A19;fill:color(display-p3 0.1020 0.1020 0.0980);fill-opacity:1;"/>
<path id="Vector_2" d="M23.3708 9.80061C24.5257 9.71079 26.0212 9.99158 27.1214 10.3413C25.4094 10.4173 24.3204 11.084 22.8058 11.7798C22.3815 11.9747 21.8637 12.159 21.421 12.3224C22.91 12.2764 24.2458 11.9025 25.755 12.0492C27.1614 12.1859 27.9975 12.5595 29.1456 13.3376C29.9014 13.0502 30.8478 12.3972 31.6727 12.3324C32.6726 13.7785 33.0514 16.0442 33.4943 17.7695C33.1607 17.8588 32.7058 18.0626 32.3792 18.1998C31.8538 18.4241 31.3249 18.6409 30.7934 18.85C30.4756 18.9738 29.7613 19.3001 29.4492 19.0992C29.405 18.9968 29.2864 18.2827 29.2569 18.1272C29.0245 18.602 28.6274 19.0084 28.0385 18.8181C27.7523 18.7256 27.4316 18.5189 27.1653 18.3676L26.0483 17.7367C25.1592 17.233 24.2501 16.7653 23.3234 16.3347C22.7161 16.0478 21.951 15.7017 21.3134 15.4974C20.228 16.0142 18.1415 18.0231 17.3548 18.9814C18.4192 20.4879 20.517 22.4325 22.1134 23.4037C22.9127 23.1036 23.7237 22.7709 24.5201 22.4537C24.8683 22.3149 25.6119 22.068 25.9016 21.9118C26.7312 21.4486 27.457 20.7138 28.3456 20.3657C28.5467 20.2869 29.1614 20.2807 29.2322 20.5374C29.3659 21.022 29.4641 21.5309 29.5714 22.0245L30.1166 24.4216C29.4301 24.9265 28.9911 24.3853 28.3151 24.3596C28.0988 24.3513 26.4578 24.8274 26.3319 24.9443C26.3546 25.0537 26.4088 25.1243 26.4852 25.2034C26.6946 25.4199 28.3666 26.6821 28.5982 26.6704C28.8237 26.6589 29.159 26.2185 29.3115 26.0564C29.5063 25.8447 29.6979 25.6233 29.8716 25.394C30.0324 25.1819 30.2357 24.9255 30.307 24.6677C30.3985 24.3362 30.1591 23.2383 30.1025 22.8233C30.6604 23.2712 31.1766 23.7788 31.7267 24.2267C32.1557 23.8982 32.7785 23.1397 33.0958 22.7084C33.1417 22.9808 33.1758 23.2552 33.1973 23.5306C33.2781 24.6018 32.8346 25.1834 32.34 26.0818C32.2348 26.2722 31.9971 26.5693 31.9597 26.7747C31.6173 28.6636 31.3071 30.5613 30.9911 32.4556C30.8817 33.1099 30.8307 33.7546 30.7055 34.4033C30.6687 34.5945 30.5554 34.8235 30.4298 34.9714C30.0495 35.4106 29.4958 35.2971 28.9799 35.2656L27.6259 35.1814L25.6093 35.0515C25.2503 35.0266 24.8395 35.0327 24.493 34.9346C23.4718 34.6453 17.8989 31.5198 17.1237 30.7856C16.9144 30.5874 16.8022 30.3572 16.7265 30.0806C16.5842 29.5615 16.581 28.9646 16.5469 28.4282C16.4866 27.4841 16.4411 26.5393 16.4104 25.5937C16.8744 25.9021 17.3349 26.2158 17.7918 26.5347C17.9632 26.6536 18.6174 27.1084 18.7119 27.2393C19.2679 28.0085 19.7339 29.3813 20.0641 30.2732C19.9867 28.5215 19.6848 26.4673 19.3265 24.7603C18.5449 23.9886 17.6161 23.2891 16.7822 22.5719C16.4312 22.27 16.0637 21.9694 15.7414 21.6369C15.7337 21.2627 15.8152 19.2439 15.9285 18.9873C16.3261 18.0865 17.8455 16.193 18.4632 15.4182C18.2512 14.6787 17.9819 13.9568 17.6577 13.2591C17.5128 12.9427 17.3425 12.6474 17.201 12.33C17.2181 12.3088 17.2357 12.2881 17.2537 12.2678C18.2141 11.1684 20.333 10.3232 21.7355 10.019C22.2853 9.89976 22.8113 9.83791 23.3708 9.80061Z" fill="var(--fill-0, #D4D4CC)" style="fill:#D4D4CC;fill:color(display-p3 0.8314 0.8314 0.8000);fill-opacity:1;"/>
<path id="Vector_3" d="M27.7313 29.3349C28.7019 29.4065 30.0647 29.4621 30.5885 28.5136C28.4392 29.2509 26.8045 28.5856 24.6068 28.3727C25.3863 28.9664 26.7682 29.2241 27.7313 29.3349Z" fill="var(--fill-0, #1A1A19)" style="fill:#1A1A19;fill:color(display-p3 0.1020 0.1020 0.0980);fill-opacity:1;"/>
<path id="Vector_4" d="M27.0421 30.224C27.1309 30.222 27.2198 30.2218 27.3086 30.2237C27.6161 30.231 29.1036 30.296 29.2913 30.493C29.2752 30.6095 29.0226 30.8809 28.9345 30.9837C28.6858 30.9766 28.4161 30.9515 28.166 30.9325C27.3791 30.8587 26.5901 30.8123 25.8001 30.7933C26.1987 30.484 26.5347 30.2545 27.0421 30.224Z" fill="var(--fill-0, #1A1A19)" style="fill:#1A1A19;fill:color(display-p3 0.1020 0.1020 0.0980);fill-opacity:1;"/>
<path id="Vector_5" d="M21.7194 18.7849C23.2118 18.7396 24.4952 19.2333 25.7828 19.9391C25.4358 20.0908 25.16 20.1779 24.7978 20.2816C24.4024 20.4013 23.6246 20.4997 23.2153 20.4532C22.3291 20.3528 21.4382 19.5101 20.889 18.8577C21.1828 18.8222 21.4225 18.8026 21.7194 18.7849Z" fill="var(--fill-0, #D4D4CC)" style="fill:#D4D4CC;fill:color(display-p3 0.8314 0.8314 0.8000);fill-opacity:1;"/>
<path id="Vector_6" d="M11.5876 18.8547C12.1858 18.8231 13.0952 19.5607 13.4777 20.0033C13.6212 20.729 13.7465 21.3217 13.8458 22.061C13.3749 21.5917 12.9166 21.1138 12.4402 20.6484C12.0867 20.2994 11.7131 19.9252 11.2644 19.7132C10.7957 20.0786 10.572 20.8219 10.3608 21.3649C10.4294 20.4991 10.5659 19.0654 11.5876 18.8547Z" fill="var(--fill-0, #D4D4CC)" style="fill:#D4D4CC;fill:color(display-p3 0.8314 0.8314 0.8000);fill-opacity:1;"/>
<path id="Vector_7" d="M31.3323 20.2239C31.7762 20.1776 32.225 20.2352 32.6428 20.3922C32.41 20.8194 32.0215 21.4499 31.5144 21.577C31.4524 21.5926 31.3399 21.5611 31.2757 21.5447C30.7168 21.3672 30.298 21.0795 29.9119 20.6433C30.4242 20.3907 30.7754 20.2982 31.3323 20.2239Z" fill="var(--fill-0, #D4D4CC)" style="fill:#D4D4CC;fill:color(display-p3 0.8314 0.8314 0.8000);fill-opacity:1;"/>
</g>
</svg>
