<svg width="100%" height="100%" overflow="visible" viewBox="0 0 40.4591 50" fill="none" xmlns="http://www.w3.org/2000/svg">
<g id="aicanvas-terminator2">
<path id="Vector" d="M22.3268 4.5021C22.5772 4.47551 23.488 4.52033 23.766 4.53652C25.4105 4.63188 27.0467 4.8383 28.6634 5.15432C29.3058 5.27426 30.1277 5.43168 30.7525 5.61203C30.9999 5.86877 31.8024 7.10891 31.9079 7.41438C32.1621 8.15185 31.4555 9.54682 31.1078 10.191C31.7832 9.55639 32.2041 9.06401 32.4954 8.16189C32.3784 7.72329 32.1721 7.24387 32.0173 6.80722C32.294 7.06035 32.8487 7.72099 33.0238 8.05346C32.9991 8.94672 33.0003 9.94289 32.3843 10.6316C32.5296 10.6266 32.6812 10.6275 32.8272 10.6264C33.1246 11.052 33.4784 11.98 33.4342 12.5213C33.4196 12.7001 33.2836 13.0939 33.2262 13.2823L32.8194 14.5864C32.6385 15.168 32.8704 15.2108 33.0213 15.5598C33.1744 15.9134 33.4413 16.9524 33.4906 17.3638C33.5024 17.4612 33.3925 17.7884 33.359 17.8953C33.8606 18.0649 34.6839 18.3483 35.1227 18.6334C35.1337 18.8517 35.0765 19.3601 35.0345 19.5763C34.9313 19.6645 34.8272 19.7522 34.7227 19.8392C34.4661 20.6173 34.3824 21.9984 33.8105 22.7314C33.5722 23.0371 33.0885 23.0634 32.7244 23.0877C32.7215 23.2785 32.7178 23.4891 32.6658 23.6821C32.4986 24.3024 32.1521 24.9431 31.8425 25.5049C31.7473 25.6775 31.5146 25.864 31.4582 26.0554C31.3268 26.5017 31.212 26.9631 31.0963 27.4116C30.8263 28.4573 30.5674 29.5059 30.3196 30.5571C30.1768 31.1426 30.0364 31.7529 29.8117 32.314C29.6721 32.6626 29.4108 32.8728 29.0995 33.0642C29.4108 33.4006 29.7111 33.7471 29.9997 34.103C30.1199 34.2539 30.6199 34.9509 30.7506 35.0273C31.9375 35.7253 33.2941 36.1934 34.3782 37.0676C34.8502 37.448 34.838 37.97 34.734 38.5061C34.9982 39.165 35.1378 39.5837 35.1705 40.3076C35.2006 40.9663 35.1578 40.9001 34.7823 41.4338C33.9892 42.5603 32.9818 43.3267 31.7976 44.0039C31.0074 43.2322 30.2061 42.3799 29.4154 41.6011C29.0409 41.2317 27.9929 40.188 27.7683 39.8228C28.1147 39.5564 28.9295 39.249 29.3666 39.2854C30.3142 39.3638 31.3007 39.7773 32.2432 39.9429C32.4678 39.9824 32.8214 40.0732 33.0389 40.0581C33.1417 39.9709 33.1434 39.7937 33.1598 39.658C33.0272 39.4097 32.4334 38.6589 32.2163 38.3511C31.2301 36.9509 30.2857 35.2041 29.0585 34.0266C29.3344 34.5059 29.6542 35.1194 29.959 35.5674C30.4112 36.2324 30.9339 36.9253 31.393 37.5828C31.6518 37.9534 32.6182 39.1787 32.6927 39.583C32.6829 39.6101 32.6832 39.6318 32.6556 39.6465C32.417 39.7722 30.0486 39.0984 29.6581 38.9517C29.2179 38.7864 27.8847 39.2434 27.4367 39.4485C27.2118 39.1938 27.1542 39.042 26.9615 38.8C27.0912 39.2693 27.2282 39.7886 27.5011 40.1956C27.8962 40.7844 28.534 41.2373 29.0233 41.7351C29.4064 42.1343 29.7949 42.5293 30.178 42.9282C30.5899 43.3574 31.0419 43.7539 31.4521 44.1802C31.2995 44.25 31.141 44.3306 30.9891 44.4043C30.985 44.2043 30.971 44.0461 30.8536 43.8755C30.7625 43.741 30.619 43.6509 30.458 43.6274C30.27 43.6006 30.0793 43.6545 29.9333 43.7764C29.5766 44.0701 29.6349 44.5229 29.9206 44.8362C28.4549 45.3723 26.9239 45.709 25.3685 45.8369C25.4875 45.1702 25.5028 44.3813 25.5968 43.7019C25.7092 42.8899 25.8779 42.0879 26.0254 41.2808C25.4061 41.5076 25.0267 41.5449 24.3842 41.5828C25.0406 41.3706 25.5634 41.2021 26.0974 40.7436C26.1518 40.4307 26.1733 40.1121 26.2336 39.7842C25.4093 40.4675 24.6123 40.6018 23.5709 40.5767C22.6157 40.554 21.8066 40.3652 20.9138 40.043C21.0395 40.3076 21.3582 40.8286 21.5178 41.0874C21.7843 41.2244 22.1289 41.3135 22.4089 41.4595C22.1669 41.4678 21.9684 41.4617 21.7301 41.4221C22.2951 42.4355 22.9436 43.4436 23.5262 44.4504C23.7909 44.9082 24.1365 45.4312 24.3577 45.8997C22.2211 45.9241 20.8299 45.7742 18.7316 45.3699C18.5577 45.1895 18.4865 45.1145 18.3965 44.8831C18.4266 44.7109 18.4629 44.5967 18.5152 44.4285L18.038 44.4607C18.1014 44.3635 18.4049 43.9592 18.4202 43.8948L18.3853 43.8936C17.9886 44.103 17.6724 44.2541 17.3544 44.5784C17.6634 44.8333 18.0116 45.0073 18.3686 45.3137C17.8462 45.1772 17.2772 45.0457 16.7592 44.9114C16.3599 44.8079 15.4531 44.0505 15.2342 43.709C15.443 43.3206 15.9153 42.9128 16.2163 42.5803C16.7213 42.0225 19.3952 39.1028 19.4211 38.6367C19.4274 38.5237 19.3749 38.4221 19.2965 38.343C19.0457 38.0903 18.3666 37.8186 18.014 37.8301C17.5768 37.8445 17.0787 38.0513 16.6742 38.2065C16.1896 38.3923 15.7043 38.585 15.2308 38.7974C14.2523 39.2363 12.7659 40.0645 11.7139 40.0769C11.5208 39.9658 11.396 39.8286 11.3449 39.606C11.1955 38.9546 11.1549 38.2744 11.0927 37.6099C10.9453 36.0344 10.7925 34.4656 10.49 32.9106C10.2782 31.7407 9.84719 30.812 9.86406 29.6096C9.76244 29.7041 9.71407 29.7676 9.62841 29.876C9.651 30.2195 9.77909 30.8415 9.84917 31.198C9.99181 31.9236 10.1151 32.6138 10.2338 33.3445C10.3663 34.113 10.4812 34.8845 10.5784 35.6584C10.7034 36.7209 10.7785 37.7898 10.8729 38.8555C10.9112 39.2883 10.8959 40.0195 11.2305 40.342C11.3816 40.4878 11.5902 40.5269 11.7925 40.4978C12.3225 40.4211 12.8879 40.125 13.3763 39.9133C14.386 39.4761 17.1269 38.2278 18.1044 38.2119C18.4867 38.2058 18.8524 38.4424 19.1157 38.7007C18.9722 39.1748 18.5731 39.4827 18.2415 39.8418C17.1556 41.0186 16.0615 42.2034 15.0022 43.4031C14.6514 43.8003 14.9242 44.1177 15.2365 44.4126C14.6147 44.2273 13.7938 43.9128 13.1852 43.6704C11.5045 43.0049 9.86892 42.2305 8.28896 41.3523C7.99342 41.1909 7.37857 40.8745 7.1481 40.6631C6.90925 40.4456 6.73592 39.7793 6.54678 39.5737C6.07263 39.0586 5.62216 38.3059 5.15589 37.8289C4.99393 37.8835 4.81393 37.9324 4.64865 37.9805C5.78111 38.8486 5.88227 39.1338 6.59671 40.3501C6.33794 40.187 5.69572 39.8049 5.49821 39.6152C5.0549 39.1897 4.58541 38.5229 4.07155 38.1848L3.83888 38.4028C3.73406 38.3281 3.59734 38.2478 3.48593 38.1782C3.53283 38.0217 3.58174 37.7793 3.62357 37.6135C4.2799 37.0557 6.33919 36.1238 7.19967 35.7441C7.73262 35.509 8.62626 35.1892 9.07541 34.8274C9.12183 34.4775 9.14483 33.8994 9.13519 33.552C9.03132 33.5278 8.9251 33.5127 8.8196 33.4973C8.31162 33.4231 7.81461 33.3059 7.3156 33.1865C6.26721 33.8762 5.66315 34.0295 4.48466 34.4412L4.6077 33.8748C5.23761 33.6572 5.89992 33.4475 6.49306 33.1457C6.73028 33.0249 6.96995 32.8113 7.22133 32.686L7.24638 32.6738C7.4677 32.7097 7.78846 32.7905 8.01542 32.8391C8.43554 32.4961 8.97694 32.1545 9.43591 31.7891C9.3765 31.3027 9.00973 29.9402 9.09331 29.5793C9.12452 29.4446 10.0783 28.4504 10.2776 28.1965C10.6187 27.7581 10.9388 27.3035 11.2368 26.8347C12.1194 25.4731 11.9465 25.5842 13.4406 24.8874C13.2175 24.3821 12.9896 23.8866 12.784 23.3723C12.6651 23.167 12.55 22.6005 12.4149 22.4271C12.1939 22.1432 11.9296 21.8656 11.7146 21.5623C11.121 20.7245 11.1359 19.7986 11.3181 18.838C10.9586 17.9119 10.8864 17.3823 10.6697 16.4099C10.4627 15.5473 10.2351 14.6886 10.0525 13.8204C9.98859 13.5163 10.0472 13.3408 10.1708 13.0572C10.6019 12.0679 11.1487 11.1075 11.7615 10.219C11.3947 10.2735 11.077 10.3428 10.7151 10.4251C11.498 9.54094 13.4637 8.23745 14.4855 7.49643L13.3195 7.4977C15.7802 5.89624 18.7194 5.08518 21.5942 4.60158C21.8362 4.56088 22.0825 4.52524 22.3268 4.5021Z" fill="#1A1A19"/>
<path id="Vector_2" d="M26.4832 22.6779C26.4893 22.6979 26.3902 23.3155 26.395 23.4689L26.4053 23.4865C26.6756 23.9517 27.0414 24.0218 27.4821 24.2695C27.7258 24.4064 28.4729 25.1807 28.7764 24.937C29.2145 24.5857 29.6601 24.1164 30.0544 23.7127C30.2722 24.0784 30.712 25.1194 30.8463 25.5139C30.6065 26.6865 30.4014 27.8286 30.0676 28.9866C30.0122 29.1785 29.8933 29.3716 29.8227 29.5581C29.7387 29.7795 29.6652 30.0176 29.5929 30.2437C29.2565 29.7429 29.3383 29.5786 28.751 29.3294C28.3787 28.4439 29.2113 28.3081 27.7924 28.1792C26.7327 28.0818 26.7271 27.988 25.9301 28.6084C26.271 28.6548 26.6426 28.6755 26.9879 28.7012C26.9285 28.8762 26.867 29.0508 26.8035 29.2244C26.3699 29.3662 26.0852 29.6465 25.7724 29.9668C25.686 30.0552 25.5961 30.1589 25.4967 30.2317C25.445 30.2698 25.3627 30.2534 25.3024 30.2429C24.7352 30.1431 23.5873 29.1406 23.2562 28.6523C23.2009 28.571 23.16 28.4924 23.1426 28.3943C23.0781 28.0308 23.1048 26.147 23.1835 25.7954C23.2845 25.3435 25.2469 23.6228 25.6896 23.2609C25.9433 23.0524 26.2082 22.8578 26.4832 22.6779Z" fill="#D4D4CC"/>
<path id="Vector_3" d="M27.0208 26.3533C27.5434 26.3037 27.7646 26.469 28.2078 26.5112C29.2323 26.6084 29.3874 26.501 29.798 27.5776C29.5927 27.446 29.2689 27.2056 29.065 27.1121C28.8785 27.0266 28.3831 27.0322 28.1533 27.0034C27.8652 26.9673 27.5715 26.9285 27.2819 26.8889C26.5501 26.7844 26.0295 26.8347 25.3185 27.0369C24.8836 27.1606 24.6966 27.2656 24.2351 27.2756C25.0562 26.6313 25.9958 26.4202 27.0208 26.3533Z" fill="#1A1A19"/>
<path id="Vector_4" d="M13.0091 17.3642C13.7517 17.3411 14.4857 18.0284 14.9368 18.56C15.3043 18.993 15.4918 19.3663 15.5955 19.9221C15.6146 20.0242 15.671 20.2032 15.6603 20.3004C15.6187 20.3228 15.5767 20.3442 15.5341 20.3645C15.5059 20.4745 15.5522 20.6455 15.5558 20.7671C15.5829 21.7047 15.8049 22.7369 15.7961 23.6657C15.5537 24.0416 15.0736 24.2723 14.6292 24.1719C14.1019 23.9754 13.6489 23.252 13.2868 22.8248C12.7813 22.2284 12.1804 21.6365 11.8177 20.9412C11.533 20.38 11.5906 19.6886 11.7249 19.0953C11.8977 18.3317 12.1743 17.5725 13.0091 17.3642Z" fill="#1A1A19"/>
<path id="Vector_5" d="M12.8473 17.9253C12.8946 17.92 13.016 17.9065 13.0562 17.9166C13.5556 18.0417 14.2227 18.7369 14.5097 19.138C14.8485 19.6117 15.2392 20.2317 14.9227 20.7775C14.8482 20.9061 14.7279 21.181 14.7065 21.321C14.6694 21.6594 15.0497 21.854 15.2377 22.0967C15.3685 22.2658 15.4076 22.5188 15.2029 22.6472C14.8363 22.8772 14.588 22.2697 14.3551 22.1129C14.08 21.9277 13.6962 21.9448 13.5326 21.5774C13.4038 21.3224 13.4138 21.0604 13.4896 20.7905C13.6465 20.2947 14.0606 19.9359 14.5056 19.7007C14.432 19.5334 14.3853 19.455 14.2876 19.2986C14.2738 19.2874 14.2492 19.2826 14.2296 19.2764C13.8545 19.3888 13.3827 19.8373 13.1002 20.1124C13.149 19.5986 13.3326 19.1645 13.6205 18.7428C13.5143 18.6386 13.4441 18.594 13.3214 18.5104C12.7181 19.1807 12.4325 20.2972 12.4609 21.1901C11.962 20.7067 12.1765 19.9595 12.3133 19.35C12.0923 19.6479 12.0268 19.8413 11.8781 20.1821C11.8386 19.3625 12.0131 18.2923 12.8473 17.9253Z" fill="#1A1A19"/>
<path id="Vector_6" d="M12.4956 21.5268C12.8625 21.675 13.7716 22.5621 14.0043 22.929C13.5181 22.7872 12.6559 22.0108 12.4956 21.5268Z" fill="#1A1A19"/>
<path id="Vector_7" d="M28.8863 18.9715C29.1217 19.0057 29.192 19.0533 29.3952 19.1825C29.4658 19.4492 29.5266 19.8926 29.5915 20.1846C29.7939 21.0943 29.9604 22.0018 30.2486 22.8896C29.1874 23.6841 29.1642 22.989 28.1304 23.009C27.8984 23.0135 27.0658 23.331 26.7745 23.3697C26.4197 23.2061 26.6883 22.5804 26.7914 22.3201C25.9214 22.6563 24.1287 24.0394 23.3135 24.6296C23.067 24.3638 22.8116 24.1066 22.5475 23.8583C21.6844 23.065 20.7911 22.3051 19.8696 21.5803C20.1692 21.3486 20.43 21.2699 20.7811 21.1465C20.8595 21.2356 21.1469 21.5034 21.2709 21.5499C22.6018 22.049 24.9532 22.3142 26.3208 22.0314C27.1637 21.7857 27.6657 20.6615 27.9915 19.927C28.2615 19.3186 28.1721 19.1629 28.8863 18.9715Z" fill="#D4D4CC"/>
<path id="Vector_8" d="M22.8803 23.3322C23.0065 23.2857 23.1465 23.3501 23.1933 23.4762C23.24 23.6022 23.1758 23.7424 23.0498 23.7893C22.9235 23.8364 22.783 23.772 22.7361 23.6456C22.6893 23.5193 22.7539 23.3788 22.8803 23.3322Z" fill="#1A1A19"/>
<path id="Vector_9" d="M22.9218 23.4695C22.9776 23.4516 23.0376 23.4806 23.0582 23.5355C23.0787 23.5904 23.0525 23.6518 22.9986 23.6748C22.9614 23.6907 22.9185 23.6849 22.887 23.6597C22.8554 23.6345 22.8402 23.5939 22.8475 23.5542C22.8548 23.5145 22.8833 23.4819 22.9218 23.4695Z" fill="#D4D4CC"/>
<path id="Vector_10" d="M21.7301 14.0432C22.3825 14.0121 26.4983 14.5779 26.9097 14.8587C27.1324 15.0106 27.3229 15.2747 27.498 15.4786C27.8476 15.8861 28.1809 16.3106 28.5867 16.6643C28.6038 16.9256 28.5835 17.1269 28.5525 17.3819C28.0542 17.2615 27.3427 16.9445 26.7623 16.7855C25.6007 16.4674 24.4795 16.282 23.3246 15.9757C22.9436 15.8777 22.3932 15.6529 22.0179 15.7874C21.9181 15.264 21.8281 14.7638 21.7152 14.2418C21.6923 14.8062 21.7437 15.3508 21.7176 15.9225C21.5701 16.0315 21.4325 16.0942 21.2664 16.1689C21.3716 16.0362 21.4416 15.9382 21.5349 15.7966C21.566 15.3679 21.5097 14.7171 21.4825 14.2749C21.2223 14.3516 20.9882 14.4739 20.7668 14.6288C20.6906 14.9805 20.6787 15.4001 20.4941 15.7063C20.2464 16.1174 19.7629 16.391 19.3105 16.5094C19.6619 16.2027 20.2354 16.0136 20.4269 15.5557C20.5603 15.2369 20.573 14.884 20.6627 14.5532L20.6701 14.5262C20.9022 14.3403 21.4381 14.1015 21.7301 14.0432Z" fill="#D4D4CC"/>
<path id="Vector_11" d="M28.2041 16.6663C28.511 16.6772 28.5421 16.9201 28.3401 17.1131C28.0308 17.1283 28.0151 16.866 28.2041 16.6663Z" fill="#1A1A19"/>
<path id="Vector_12" d="M26.8375 29.5698C27.3251 29.5369 28.4456 29.5874 28.9098 29.7031C29.078 29.9219 29.2382 30.2769 29.3908 30.5203C29.5273 30.7378 29.6272 30.8438 29.7927 31.0374C29.727 31.4575 29.5427 32.073 29.287 32.4055C28.9965 32.7827 28.6961 32.8164 28.2642 32.8767C28.6116 32.4641 28.8299 32.0857 28.6881 31.5169C28.6527 31.375 27.8752 31.3772 27.853 31.4265C27.5908 32.0142 27.4614 32.478 26.9274 32.8914C26.0476 32.8618 25.5507 32.699 24.7406 32.3811C24.2634 32.179 23.7255 31.886 23.2607 31.6465C23.2889 31.5679 23.315 31.479 23.3407 31.3984C23.7496 31.4827 24.6363 31.8079 25.0218 31.6653C25.2838 31.5686 25.7475 30.7583 25.8581 30.4927C25.6542 30.5967 25.4909 30.7554 25.296 30.8735C25.1644 30.9534 25.0626 30.9649 24.9132 30.9255C24.703 30.8701 23.6067 30.2666 23.5169 30.0925C23.4916 30.0437 23.4935 30.0364 23.5113 29.9878C23.5613 29.9751 23.6082 29.9895 23.6522 30.0149C24.1225 30.2874 24.5447 30.6006 25.0626 30.7832C25.2931 30.7124 25.6452 30.5083 25.8391 30.3582C26.1045 30.1528 26.5142 29.6548 26.8375 29.5698Z" fill="#D4D4CC"/>
<path id="Vector_13" d="M26.1885 31.1414C26.6256 31.4868 26.7083 31.5471 27.2284 31.7346C27.214 31.9114 27.2028 32.0024 27.1657 32.1751L26.5733 32.1792C26.3968 32.376 26.3413 32.4587 26.125 32.6209L26.1387 32.6462C26.3416 32.6438 26.4993 32.4155 26.6258 32.272L27.234 32.2803C27.1688 32.3721 27.0941 32.4648 27.0248 32.5542L26.8263 32.7573C26.1912 32.7188 25.2218 32.4844 24.6641 32.1843C25.0826 32.1863 25.4518 32.2383 25.7258 31.8633C25.8928 31.6345 26.0544 31.3899 26.1885 31.1414Z" fill="#1A1A19"/>
<path id="Vector_14" d="M25.8889 30.7285C25.9274 30.7708 26.0244 30.9695 26.0571 31.033C25.956 31.3135 25.5519 32.0315 25.2291 32.0713C24.6338 32.1445 24.172 32.0349 23.6744 31.7117C23.6566 31.6958 23.6665 31.707 23.6514 31.6731C23.7469 31.6602 23.9299 31.707 24.0361 31.7251C24.3953 31.7861 24.73 31.8232 25.0941 31.8325C25.1703 31.937 25.2452 32.0151 25.3329 32.1096L25.1673 31.7678C25.456 31.4114 25.6432 31.1123 25.8889 30.7285Z" fill="#1A1A19"/>
<path id="Vector_15" d="M29.3781 31.6899L29.4457 31.6936L29.4674 31.7334C29.443 32.009 29.1837 32.3848 28.9745 32.5635C28.9081 32.6199 28.7891 32.6624 28.7059 32.6931C28.6429 32.6941 28.6673 32.7058 28.6253 32.6704C28.8065 32.3689 28.8834 32.1523 28.9911 31.8257C29.1017 31.7776 29.2601 31.7295 29.3781 31.6899Z" fill="#1A1A19"/>
<path id="Vector_16" d="M27.013 29.7383C27.067 29.7427 27.0475 29.739 27.0978 29.7632C27.0821 29.834 26.8629 29.9888 26.783 30.0803C26.5843 30.3079 26.4082 30.542 26.2109 30.771L26.1934 30.7771L26.1672 30.7522C26.0959 30.405 26.2942 30.1802 26.5227 29.9446C26.6553 29.8081 26.8348 29.7827 27.013 29.7383Z" fill="#1A1A19"/>
<path id="Vector_17" d="M26.8329 30.3638C26.933 30.3293 27.0441 30.3523 27.122 30.4238C27.2001 30.4954 27.2328 30.604 27.2069 30.7065C27.1813 30.8093 27.1014 30.8896 26.9986 30.916C26.8487 30.9546 26.6951 30.8679 26.6505 30.7195C26.606 30.5713 26.6864 30.4143 26.8329 30.3638Z" fill="#1A1A19"/>
<path id="Vector_18" d="M26.8524 30.5066C26.9005 30.4836 26.9571 30.4885 27.0004 30.5193C27.0436 30.55 27.0668 30.602 27.0607 30.6548C27.0546 30.7075 27.0201 30.7529 26.9708 30.7729C26.8981 30.8027 26.8146 30.7693 26.7826 30.6973C26.7506 30.6252 26.7816 30.5408 26.8524 30.5066Z" fill="#D4D4CC"/>
<path id="Vector_19" d="M29.4255 31.0461C29.749 31.1208 29.6914 31.4421 29.467 31.6016C29.1361 31.5779 29.2462 31.2202 29.4255 31.0461Z" fill="#1A1A19"/>
<path id="Vector_20" d="M29.486 31.1716C29.5649 31.2893 29.5258 31.396 29.4291 31.4836C29.3764 31.4238 29.3808 31.4216 29.3664 31.3462C29.3874 31.2556 29.4159 31.2405 29.486 31.1716Z" fill="#D4D4CC"/>
<path id="Vector_21" d="M26.3777 10.6709C26.8226 10.7783 27.8501 11.2441 28.2827 11.446C28.3452 11.6282 28.4993 12.3752 28.6255 12.5611C28.6866 12.6508 28.8485 12.65 28.9517 12.6721C29.7873 12.8505 29.6164 12.353 29.6694 11.6898C29.9736 11.5879 30.2796 11.491 30.587 11.3991C30.5611 12.3838 30.4873 13.2053 30.3621 14.1788C30.2988 14.4116 30.2314 15.5902 30.0513 15.6169C29.5678 15.6883 28.4148 15.4032 27.9526 15.2566C27.9011 14.827 27.739 13.7402 27.6022 13.3321C27.3173 12.4806 26.793 11.4603 26.3777 10.6709Z" fill="#D4D4CC"/>
<path id="Vector_22" d="M28.2283 14.4235C28.5401 14.4647 28.5963 14.7328 28.3518 14.9272C28.0181 14.9112 28.0266 14.6279 28.2283 14.4235Z" fill="#1A1A19"/>
<path id="Vector_23" d="M29.7995 14.6718C29.8703 14.639 29.9536 14.6474 30.0166 14.6937C30.0798 14.74 30.1125 14.8168 30.1025 14.8944C30.0925 14.9719 30.0412 15.0379 29.9685 15.0667C29.8603 15.1094 29.7377 15.0583 29.6921 14.9514C29.6462 14.8445 29.6938 14.7206 29.7995 14.6718Z" fill="#1A1A19"/>
<path id="Vector_24" d="M18.8779 34.1135L19.4232 34.145C19.5182 34.3472 19.6363 34.6951 19.7218 34.916C19.9262 35.4346 20.1276 35.9543 20.3259 36.4753C20.4269 36.7407 20.5481 37.0933 20.6748 37.3384C20.7986 37.3818 20.967 37.4204 21.0975 37.4541C20.9241 38.0037 21.1868 38.4587 21.7798 38.2493C22.0571 38.1511 21.9532 37.7014 22.0817 37.6294C22.3562 37.7307 23.0978 39.551 23.3406 39.8801C23.3854 39.9409 23.477 40.1309 23.4574 40.209C23.1321 40.2339 23.0144 39.7134 22.8869 39.4717C22.6453 39.0139 22.4365 38.5117 22.153 38.0779C22.2257 38.573 22.5021 39.1028 22.7132 39.5664C22.7863 39.7383 22.9275 39.97 22.9745 40.1399L22.945 40.1562C22.9185 40.1457 22.8642 40.1309 22.85 40.1099C22.4995 39.5901 22.2336 39.071 21.793 38.6123C21.8518 38.8511 22.1817 39.8596 22.1398 40.0007L22.0847 40.0081C21.8515 39.9031 21.4887 39.01 21.2296 38.6921L21.2108 38.6694C21.3014 39.0754 21.3419 39.4011 21.3739 39.8142C21.1248 39.719 20.7693 39.5835 20.5424 39.457C20.3981 39.2063 20.1969 38.823 20.0855 38.5632C20.1329 38.4587 20.175 38.3518 20.2116 38.2432C20.4907 37.3862 20.2089 36.4202 19.3541 36.0171C19.2506 35.9683 19.1147 35.9285 19.0049 35.8928L18.704 35.3542C18.8779 34.8425 18.8904 34.6443 18.8779 34.1135Z" fill="#D4D4CC"/>
<path id="Vector_25" d="M18.8837 30.0598L19.7498 30.563C19.6601 30.6411 19.5719 30.7212 19.4852 30.803C19.4648 31.1072 19.4859 31.5225 19.546 31.8166C19.6467 31.8093 19.7804 31.7878 19.8835 31.7742C19.9409 31.5535 20.0847 30.9917 20.2988 30.9116L20.3694 30.947C20.4504 31.0774 20.1333 31.5576 20.1164 31.74C20.0778 32.1543 20.2083 32.6362 20.287 33.0449C20.144 33.0718 19.9679 33.0847 19.8578 33.1887C19.8264 33.2183 19.8183 33.2568 19.8184 33.2986C19.8194 33.6433 20.7662 36.9358 20.9281 37.0674C21.0738 37.1855 21.625 37.1936 21.8048 37.1721L21.8318 37.1313L21.8075 37.0825C21.6537 36.9824 21.2971 36.9819 21.0693 36.9333C20.9414 36.6543 20.6788 35.7417 20.5833 35.3921C20.4291 34.8274 20.0913 33.8393 20.0175 33.2937C20.263 33.2136 20.6408 33.1802 20.9024 33.1521C20.9635 33.3621 21.1858 34.1506 21.165 34.3232L21.1205 34.3555C21.0453 34.3223 21.0737 34.3484 21.0361 34.271C20.9391 33.9844 20.8733 33.4712 20.7236 33.2881L20.6809 33.2886C20.6302 33.4289 20.8748 34.2866 20.9252 34.4883C20.8706 34.5488 20.8005 34.6155 20.7627 34.6877C20.6572 34.8894 21.0806 36.1611 21.1657 36.4446C21.2928 36.4536 21.4457 36.4507 21.5754 36.4514L21.2254 35.1636C21.1842 35.0149 21.0456 34.6746 21.0852 34.5481C21.1519 34.498 21.1137 34.5112 21.2074 34.52C21.4079 34.668 21.77 36.8872 22.0878 37.3425C21.8327 37.3101 21.0051 37.2593 20.8296 37.1648C20.6907 36.9089 20.5111 36.3225 20.4127 36.0271L19.7497 34.0461L19.1493 32.3408C19.084 32.1516 18.9098 31.6684 18.8771 31.4892C18.8079 31.1101 18.8627 30.4646 18.8837 30.0598Z" fill="#D4D4CC"/>
<path id="Vector_26" d="M19.6742 32.053C19.7381 32.053 19.7738 32.0559 19.8374 32.063C19.9217 32.1504 20.0354 32.7708 19.9437 32.9124C19.8973 32.9033 19.8794 32.8936 19.8356 32.8753C19.732 32.731 19.5914 32.2136 19.6742 32.053Z" fill="#1A1A19"/>
<path id="Vector_27" d="M21.2142 36.6091C21.5121 36.6125 21.6264 36.5464 21.7003 36.8618C21.393 36.8623 21.2799 36.9324 21.2142 36.6091Z" fill="#1A1A19"/>
<path id="Vector_28" d="M22.942 6.3578C23.3555 6.31183 24.7716 6.33651 25.1527 6.44433C25.9133 6.65937 27.1215 7.07253 27.7775 7.53202C28.0686 7.73581 28.5069 8.29748 28.6978 8.60964C27.3925 7.5643 26.5249 7.27531 24.8924 6.9247C25.0917 7.10082 25.3576 7.28722 25.5697 7.46437C26.0828 7.89311 26.4251 8.30258 26.8055 8.84294C26.8805 8.94191 26.9444 9.0464 27.0108 9.15124C26.4456 8.78124 25.6669 8.35988 25.0262 8.13109C24.6888 8.01064 24.1145 7.96845 23.752 7.92055C22.7274 7.78517 21.7335 7.76689 20.7061 7.72414C21.3721 7.59692 22.5849 7.38278 23.2447 7.40966C23.5717 7.42299 24.5811 7.67934 24.9447 7.77199C24.5887 7.49985 24.1548 7.1519 23.7646 6.94963C23.3531 6.73627 22.7931 6.55746 22.3475 6.40539L22.942 6.3578Z" fill="#D4D4CC"/>
<path id="Vector_29" d="M30.7838 15.5379C31.1735 15.5218 32.3181 15.5367 32.6627 15.6599C32.8206 15.7165 33.1525 17.1743 33.1781 17.4089C33.185 17.4721 33.11 17.6345 33.0748 17.7038L33.0467 17.7058C33.0209 17.5906 33.0536 17.4927 33.078 17.3748C33.0345 17.302 32.9518 17.1704 32.9357 17.0915C32.8382 16.6102 32.7525 16.1775 32.5513 15.7246C32.5643 15.8455 32.586 15.974 32.6041 16.0949C32.6597 16.3823 32.712 16.6702 32.7616 16.9587C32.2735 16.9769 31.2714 17.2478 30.7708 17.3632C30.4561 17.4358 30.1836 17.5477 29.8366 17.594C29.8103 17.2425 29.8242 16.8807 29.8347 16.5288C29.9595 16.3459 30.5858 15.6062 30.7838 15.5379Z" fill="#D4D4CC"/>
<path id="Vector_30" d="M30.8065 15.6175L30.8443 15.6579C30.8185 15.8027 30.1775 16.447 30.0273 16.5551L29.9929 16.5295C30.0774 16.3269 30.6246 15.7646 30.8065 15.6175Z" fill="#1A1A19"/>
<path id="Vector_31" d="M30.0583 16.817C30.1194 16.8158 30.1899 16.8185 30.2415 16.854C30.2952 16.8904 30.3301 16.9484 30.3372 17.0128C30.3489 17.1275 30.3054 17.1927 30.2337 17.2723C29.9333 17.2846 29.9157 17.0209 30.0583 16.817Z" fill="#1A1A19"/>
<path id="Vector_32" d="M34.0845 18.5817C34.2344 18.6663 34.3357 18.7227 34.4495 18.857C34.5469 19.6016 34.0156 21.6676 33.5734 22.34C33.4636 22.5069 33.2543 22.5707 33.0607 22.5898C32.7872 22.6169 32.4483 22.6171 32.1726 22.5917L32.1848 22.5519C32.4151 22.418 32.6134 22.506 32.9835 22.2723C33.006 21.5932 32.8539 21.1731 32.5623 20.5867C32.6258 20.3497 32.6756 20.1184 32.7279 19.8789C33.1835 19.8273 33.6882 19.7745 34.1438 19.7448C34.1922 19.4388 34.2017 18.9656 33.9714 18.7332L33.9495 18.6877C33.9854 18.6174 33.9995 18.6286 34.0845 18.5817Z" fill="#D4D4CC"/>
<path id="Vector_33" d="M34.0845 18.5817C34.2344 18.6663 34.3357 18.7227 34.4495 18.857C34.5469 19.6016 34.0156 21.6676 33.5734 22.34C33.4636 22.5069 33.2543 22.5707 33.0607 22.5898C32.7872 22.6169 32.4483 22.6171 32.1726 22.5917L32.1848 22.5519C32.4151 22.418 32.6134 22.506 32.9835 22.2723C33.6645 21.9834 34.0708 20.435 34.1438 19.7448C34.1922 19.4388 34.2017 18.9656 33.9714 18.7332L33.9495 18.6877C33.9854 18.6174 33.9995 18.6286 34.0845 18.5817Z" fill="#D4D4CC"/>
<path id="Vector_34" d="M31.1461 11.2318C31.1654 11.2335 31.1808 11.2449 31.2003 11.2549C31.7497 12.2132 32.1816 13.8289 32.3518 14.9205C32.3662 15.0118 32.4192 15.2635 32.3721 15.3285C32.0332 15.4202 32.1169 15.1774 32.0847 14.9465C32.0307 14.5602 32.0178 14.08 31.8584 13.7219L31.8469 13.6965C31.7358 13.6491 31.5321 13.599 31.4086 13.565C31.0377 13.5572 31.1796 14.9762 31.1674 15.2964C31.006 15.2968 30.8407 15.3055 30.679 15.312C30.5662 15.3728 30.4634 15.4705 30.3655 15.5548C30.4165 15.1085 30.5274 14.6101 30.5938 14.156C30.733 13.2241 30.7982 12.2827 30.7894 11.3406L31.1461 11.2318Z" fill="#D4D4CC"/>
<path id="Vector_35" d="M26.5645 5.45059C26.8094 5.43275 27.2777 5.51097 27.5341 5.543C28.5506 5.66998 29.5392 5.89107 30.5364 6.12091C30.8316 6.44566 31.2602 7.28109 31.3852 7.70345C30.9322 7.19129 30.7244 6.95877 30.1868 6.53436C30.2923 6.78421 30.3887 7.0378 30.4759 7.29459C30.5237 7.447 30.5748 7.62703 30.5796 7.78651C30.5933 8.21917 30.3716 8.99842 30.1997 9.3942C30.1685 8.20355 30.0837 7.69554 29.3043 6.76168C29.2658 6.71534 29.1815 6.59029 29.1337 6.55875C28.3697 6.05631 27.434 5.78145 26.5821 5.45955C26.5762 5.45657 26.5704 5.45357 26.5645 5.45059Z" fill="#D4D4CC"/>
<path id="Vector_36" d="M19.019 18.9312C19.473 18.9263 19.9213 19.0045 20.3566 19.1279C20.4473 19.8579 20.5083 20.3156 20.7068 21.0249C20.5486 21.0626 20.4383 21.1021 20.2844 21.1573C20.0491 21.2575 19.9346 21.3187 19.7345 21.4761C19.4743 21.271 19.1347 21.0731 18.9333 20.8194C18.898 20.3457 18.8788 19.8554 18.8865 19.3797C18.8891 19.2217 18.8769 19.019 19.019 18.9312Z" fill="#D4D4CC"/>
<path id="Vector_37" d="M19.0989 19.2046C19.2074 19.1984 19.3383 19.2116 19.4485 19.2189C19.4357 19.8407 19.4505 20.241 19.4917 20.8559C19.412 20.8502 19.217 20.8353 19.1838 20.7707C19.0354 20.4825 19.0769 19.4944 19.0989 19.2046Z" fill="#1A1A19"/>
<path id="Vector_38" d="M17.2852 26.1313C17.3839 26.2334 17.7739 27.4685 17.9463 27.7629C18.2292 28.2456 20.9358 29.9619 21.5674 30.3762C21.5367 30.4971 21.5204 30.6299 21.5016 30.7539L21.2559 30.6196C20.3355 30.1431 19.3628 29.5129 18.4636 28.9861C18.2688 28.8721 17.7773 28.5383 17.6412 28.3853C17.2662 27.9639 16.9259 26.968 16.8012 26.4207C16.97 26.2153 17.028 26.1692 17.2852 26.1313Z" fill="#D4D4CC"/>
<path id="Vector_39" d="M17.8997 24.5068C17.9669 24.573 18.254 25.1897 18.3469 25.3503C18.497 25.6045 18.6584 25.852 18.8303 26.092C19.4428 26.9534 20.127 27.5813 20.8575 28.3208C20.8317 28.7358 20.8093 29.0947 20.8056 29.5122C20.5083 29.333 20.1845 29.0972 19.8963 28.8967C19.8732 28.7124 19.8457 28.5288 19.8138 28.3457C19.726 28.157 19.5411 28.0898 19.52 27.9153L19.5483 27.9148C19.9706 28.1941 19.8982 28.3669 19.9888 28.7839C20.1594 28.9004 20.3181 29.0178 20.4837 29.1409C20.4866 28.9438 20.487 28.7471 20.4847 28.55C20.2727 28.2898 20.034 28.1274 19.8074 27.8931C19.2424 27.3083 18.4586 26.5681 18.1561 25.8071C18.0428 25.5222 17.9394 24.814 17.8997 24.5068Z" fill="#D4D4CC"/>
<path id="Vector_40" d="M30.5765 22.7745C31.0785 22.9672 31.5935 23.0294 32.1235 23.0848C31.9983 23.6585 31.739 24.1867 31.4589 24.6987C31.401 24.811 31.3212 24.9326 31.2536 25.0412C30.9308 24.4744 30.6431 24.0104 30.2876 23.467C30.4083 23.3263 30.4932 23.2278 30.597 23.072C30.5977 22.9671 30.587 22.8783 30.5765 22.7745Z" fill="#D4D4CC"/>
<path id="Vector_41" d="M31.3324 23.871C31.6811 23.8608 31.6748 24.1565 31.4692 24.3624C31.1405 24.3558 31.1388 24.0823 31.3324 23.871Z" fill="#1A1A19"/>
<path id="Vector_42" d="M23.4444 32.533C23.5792 32.6069 23.7263 32.6992 23.8595 32.7786C23.8569 32.9194 23.8275 33.4753 23.8993 33.5491C24.161 33.7732 24.7335 33.8906 25.0567 33.9094C25.3854 33.9285 25.2926 33.314 25.6518 33.3323C25.6699 33.3972 25.4389 33.8796 25.3932 33.9832C25.2855 34.2283 25.1813 34.4749 25.0799 34.7229C25.0621 34.7207 25.0443 34.7183 25.0265 34.7156C24.4883 34.6384 23.6804 34.5347 23.3469 34.0891C23.3362 33.6648 23.4443 33.0437 23.4444 32.533Z" fill="#D4D4CC"/>
<path id="Vector_43" d="M16.9656 31.1052C17.114 31.2036 17.2618 31.3027 17.4089 31.4031C17.3752 31.544 17.3557 31.6379 17.3582 31.7869C17.3681 32.3518 17.9729 32.804 18.481 32.4299C18.5524 32.3774 18.6082 32.301 18.6643 32.23C18.8821 32.7095 19.1237 33.3565 19.3152 33.8565L19.3322 33.9128L19.3096 33.9441C19.1802 33.9605 18.9577 33.9258 18.821 33.9102C18.5581 33.0212 17.8492 32.5466 16.9942 32.3399C16.9099 32.3193 16.8077 32.2888 16.7569 32.218C16.7608 32.0984 16.9291 31.2825 16.9656 31.1052Z" fill="#D4D4CC"/>
<path id="Vector_44" d="M16.575 43.0393C16.9566 42.9158 17.3663 43.1238 17.4917 43.5049C17.6171 43.8857 17.4111 44.2966 17.0308 44.4238C16.6476 44.5522 16.2332 44.3445 16.1068 43.9607C15.9805 43.5769 16.1905 43.1636 16.575 43.0393Z" fill="#D4D4CC"/>
<path id="Vector_45" d="M20.996 11.7005C21.0796 11.6903 21.2478 11.6613 21.3052 11.72C21.7604 12.1858 21.9831 13.2064 22.0848 13.7965C21.9769 13.8021 21.8582 13.8139 21.7494 13.8224C21.6459 13.8426 21.4861 13.896 21.3809 13.9279C21.316 13.1729 21.1378 12.7126 20.704 12.1104C20.797 11.8829 20.7951 11.8517 20.996 11.7005Z" fill="#D4D4CC"/>
<path id="Vector_46" d="M20.8927 11.9036C21.0764 12.0001 21.3889 12.6911 21.4336 12.9066C21.4482 12.9771 21.4094 13.0629 21.4237 13.1469C21.4519 13.1531 21.5074 13.1615 21.5214 13.1839C21.6063 13.3195 21.6288 13.6359 21.6245 13.7767C21.5368 13.7959 21.5462 13.8092 21.4803 13.7802C21.3795 13.5127 21.3443 13.1037 21.2247 12.8164C21.1161 12.5554 20.9378 12.3564 20.8346 12.1011C20.8091 12.0381 20.8618 11.9657 20.8927 11.9036Z" fill="#1A1A19"/>
<path id="Vector_47" d="M16.8961 28.4353C17.2687 28.8311 17.2978 28.9636 17.3975 29.4973C17.4778 29.9272 17.5853 30.3723 17.7946 30.7585C17.82 30.2949 17.8171 29.8154 17.817 29.3503C17.9916 29.4683 18.214 29.5635 18.2322 29.7791C18.2361 30.2029 18.2684 30.6585 18.2913 31.084C17.8349 30.8528 17.4642 30.6377 17.0227 30.3794C17.0136 29.761 16.9273 29.0642 16.8961 28.4353Z" fill="#D4D4CC"/>
<path id="Vector_48" d="M12.1197 38.2871C12.4608 38.2578 12.7871 38.3093 12.94 38.6653C13.0051 38.8147 13.0044 38.9844 12.9383 39.1333C12.8444 39.3457 12.6733 39.4468 12.4694 39.5239C12.1163 39.5688 11.7663 39.5056 11.6198 39.1311C11.5609 38.9812 11.5666 38.8135 11.6355 38.6677C11.7395 38.447 11.9063 38.3594 12.1197 38.2871Z" fill="#D4D4CC"/>
<path id="Vector_49" d="M31.8982 19.6706C31.7737 19.9792 31.5185 20.3524 31.142 20.2535C30.2937 20.0306 30.4598 18.6201 31.4272 18.8206C31.624 18.8613 31.7487 19.0392 31.8449 19.1985C31.7282 19.3625 31.6162 19.5296 31.5087 19.6996C31.6191 19.7431 31.7754 19.6965 31.8982 19.6706Z" fill="#E41F1D"/>
<path id="Vector_50" d="M30.994 19.3542C31.2921 18.9929 31.6228 19.2657 31.5087 19.6996C31.1918 19.9851 30.8827 19.7235 30.994 19.3542Z" fill="#1A1A19"/>
<path id="Vector_51" d="M28.044 15.6922C28.1372 15.7057 28.2434 15.7326 28.337 15.7514C28.8671 15.8579 29.4023 15.9424 29.9292 16.0637C29.8384 16.2272 29.6772 16.389 29.6149 16.563C29.5319 16.7947 29.6418 17.2911 29.5393 17.4877C29.4706 17.506 29.457 17.4967 29.3901 17.4767C29.3346 17.3956 29.3644 17.3 29.3769 17.1923C29.3488 16.8922 29.3107 16.7289 29.2189 16.4414C29.1522 16.6866 29.0822 17.2743 28.8314 17.365L28.797 17.3395C28.7735 17.2127 28.7899 16.8013 28.7879 16.6295C28.5899 16.324 28.2703 15.9968 28.044 15.6922Z" fill="#D4D4CC"/>
<path id="Vector_52" d="M25.1048 10.2838C25.3141 10.3556 27.3109 13.026 27.5128 13.3632C27.592 13.4954 27.7429 14.8848 27.7368 15.1483L27.7126 15.1612C27.6364 15.0545 27.5226 13.6376 27.3981 13.4193C27.2294 13.1232 26.9659 12.8037 26.7598 12.5338C26.3335 11.967 25.8994 11.406 25.4579 10.8509C25.3925 10.7705 25.2511 10.5847 25.1693 10.5414C25.089 10.7243 25.5365 11.1217 25.6503 11.2775C26.1545 11.9665 26.835 12.7418 27.173 13.5154C27.278 13.7553 27.3563 14.6396 27.3781 14.9166C27.0511 14.458 27.235 13.7771 27.0226 13.4389C26.4712 12.5604 25.6706 11.5127 25.0274 10.7186L25.1048 10.2838Z" fill="#D4D4CC"/>
<path id="Vector_53" d="M26.0227 36.2031C26.0566 36.2559 26.0796 36.3779 26.0964 36.4456C25.1622 37.4951 25.5925 38.1589 26.2129 39.221C26.1282 39.3411 26.0574 39.4136 25.956 39.521L25.4784 38.606L25.3603 38.8262C25.2221 39.2014 25.2377 39.5325 25.1918 39.9182C25.1845 39.9802 25.1659 39.9871 25.1285 40.0215L25.0868 40.0071C24.984 39.863 25.0438 39.6399 25.056 39.4656L25.1305 38.4224L25.3805 38.1443C25.3698 37.979 25.2963 37.665 25.2611 37.4922C25.5546 36.8494 25.5656 36.7739 26.0227 36.2031Z" fill="#D4D4CC"/>
<path id="Vector_54" d="M23.5231 11.5388C23.7091 11.6614 23.8922 11.8588 24.1252 11.9508C24.458 12.0822 26.0239 11.6257 25.6623 12.4381C25.6528 12.4596 25.5869 12.4621 25.5612 12.4662C25.1957 12.468 24.7745 12.4689 24.4126 12.5007C23.8854 12.5471 23.6463 12.2414 23.2672 11.9009C23.3467 11.711 23.3714 11.6689 23.5231 11.5388Z" fill="#D4D4CC"/>
<path id="Vector_55" d="M23.9463 12.0025C24.0881 12.0164 24.2307 12.0594 24.2764 12.2063C24.2706 12.2965 24.2647 12.2992 24.2046 12.372C23.9307 12.3795 23.7931 12.2626 23.9463 12.0025Z" fill="#1A1A19"/>
<path id="Vector_56" d="M16.673 23.9264L16.7186 23.9343C16.7738 24.0326 16.9306 24.7275 16.9701 24.8818C17.0633 25.2358 17.1607 25.5884 17.2622 25.9399C16.9995 25.9736 16.9264 26.0256 16.7468 26.1982C16.6827 26.1421 16.232 24.4108 16.149 24.16C16.342 24.0491 16.4682 24.0025 16.673 23.9264Z" fill="#D4D4CC"/>
<path id="Vector_57" d="M16.5397 24.2832C16.6857 24.3511 16.8929 25.4265 16.9466 25.636C16.9598 25.6875 16.8778 25.7358 16.8404 25.7666C16.6847 25.6448 16.4525 24.6355 16.4459 24.3974C16.4444 24.3407 16.4991 24.3149 16.5397 24.2832Z" fill="#1A1A19"/>
<path id="Vector_58" d="M32.1494 18.7483L32.1343 18.7232C32.0239 18.5437 31.8137 18.413 31.7824 18.3227C31.9651 18.2933 32.1172 18.4922 32.2273 18.6113L32.4058 18.3896L32.899 18.4922C32.7335 18.7134 32.5193 18.9607 32.3692 19.1696C32.4957 19.8764 32.3042 20.675 31.4955 20.8197C31.1959 20.8726 30.8875 20.8022 30.6404 20.6244C30.3648 20.4255 30.179 20.1255 30.1235 19.79C30.0339 19.2416 30.1687 18.6185 30.7154 18.3733C30.3726 18.7362 30.1726 19.0522 30.1892 19.5804C30.1968 19.9192 30.3411 20.2404 30.5894 20.4711C30.7945 20.6618 31.0441 20.762 31.3249 20.7472C31.5881 20.7358 31.8349 20.6164 32.0071 20.4173C32.2495 20.1366 32.3167 19.7423 32.2835 19.3823C32.281 19.355 32.2779 19.3278 32.2739 19.3006C32.19 19.3917 31.9951 19.6305 31.8982 19.6706C31.7754 19.6965 31.6191 19.7431 31.5087 19.6996C31.6162 19.5296 31.7282 19.3625 31.8449 19.1985L32.1494 18.7483Z" fill="#D4D4CC"/>
<path id="Vector_59" d="M20.5848 16.6856C21.9811 16.5875 23.1927 16.5418 24.5879 16.7912C25.0372 16.8716 25.589 16.9701 26.0163 17.1276C25.5485 17.0818 25.0873 16.9655 24.6204 16.9057C24.0171 16.8284 21.4397 16.5948 20.9996 16.9782C20.8216 17.1332 20.7668 17.9532 20.7556 18.1925L20.7093 18.1872C20.6963 17.853 20.6851 17.7897 20.5033 17.4996C20.5223 17.2274 20.5546 16.9568 20.5848 16.6856Z" fill="#D4D4CC"/>
<path id="Vector_60" d="M24.4319 24.1447L24.4426 24.1517C24.4265 24.2237 23.5999 24.9744 23.4712 25.1067C23.1897 25.3957 22.8739 25.5488 22.8769 26.0207C22.8817 26.7981 22.7754 27.8586 22.937 28.6008C22.9968 28.8752 24.2163 29.9297 24.5266 30.134C24.6605 30.2229 24.9107 30.3452 25.0089 30.4541L24.9793 30.4697C24.3073 30.2578 23.1486 29.1951 22.7544 28.6294C22.7252 28.436 22.7218 27.9438 22.7175 27.7324C22.7033 27.0454 22.6811 26.3181 22.7141 25.6328C22.9591 25.29 24.0428 24.4404 24.4319 24.1447Z" fill="#D4D4CC"/>
<path id="Vector_61" d="M17.0202 30.6584C17.4441 30.9116 17.8968 31.1475 18.3298 31.3892C18.5005 31.7146 18.5996 31.9795 18.3229 32.2756C17.8868 32.4646 17.5702 32.1846 17.5711 31.7361C17.5714 31.5906 17.6235 31.4858 17.6776 31.353C17.4749 31.1584 17.2443 31.0693 17.0556 30.8706C16.997 30.8088 17.0171 30.7456 17.0202 30.6584Z" fill="#D4D4CC"/>
<path id="Vector_62" d="M17.9288 31.4949C18.356 31.4673 18.47 31.8596 18.1661 32.1367C17.7704 32.1626 17.6124 31.76 17.9288 31.4949Z" fill="#1A1A19"/>
<path id="Vector_63" d="M25.2072 17.3371L25.914 17.4743C25.729 17.7303 24.9464 18.5061 24.6846 18.7661C24.534 18.7978 24.2201 18.8298 24.0488 18.8573C24.419 18.3386 24.8053 17.8316 25.2072 17.3371Z" fill="#D4D4CC"/>
<path id="Vector_64" d="M23.659 38.092C23.856 38.0354 24.0682 38.0935 24.2088 38.2427C24.3495 38.3918 24.3948 38.6072 24.3264 38.8005C24.2675 38.9668 24.1321 39.0945 23.9626 39.1436C23.6722 39.2275 23.3686 39.0601 23.2848 38.7698C23.2009 38.4792 23.3685 38.1758 23.659 38.092Z" fill="#D4D4CC"/>
<path id="Vector_65" d="M23.7418 38.1748C23.8994 38.1484 24.0589 38.2092 24.1593 38.3335C24.2596 38.4578 24.2851 38.6265 24.2261 38.7749C24.1671 38.9233 24.0327 39.0286 23.8744 39.0501C23.6347 39.0825 23.4133 38.9168 23.3771 38.6777C23.3408 38.4385 23.5033 38.2146 23.7418 38.1748Z" fill="#1A1A19"/>
<path id="Vector_66" d="M23.7123 38.3525C23.8566 38.2947 24.0203 38.3657 24.0767 38.5105C24.1331 38.6555 24.0605 38.8184 23.9152 38.8735C23.7717 38.9277 23.6112 38.8564 23.5556 38.7134C23.4999 38.5706 23.5698 38.4094 23.7123 38.3525Z" fill="#D4D4CC"/>
<path id="Vector_67" d="M14.053 25.3816C14.1713 25.4568 14.3031 25.5637 14.4161 25.6509C14.1124 26.3752 13.9717 27.2327 13.8859 28.0085L13.8871 28.0478L13.8627 28.0596C13.7713 27.949 13.6889 27.7878 13.6176 27.6597C13.6712 27.0784 13.9276 25.9724 14.053 25.3816Z" fill="#D4D4CC"/>
<path id="Vector_68" d="M17.765 20.5179C17.9055 20.6464 17.9441 20.9404 17.9192 21.1202C17.6982 22.7116 15.8967 22.3802 16.0893 20.8449C16.0989 20.7683 16.1281 20.7125 16.1901 20.6707L16.2226 20.6946C16.2435 20.7473 16.2086 21.1794 16.2291 21.3721C16.2864 21.5601 16.3324 21.6967 16.4899 21.8327C16.6517 21.9725 16.8647 22.0382 17.0771 22.0139C17.1899 22.0017 17.2699 21.9793 17.3384 21.8902C17.3537 21.7974 17.3545 21.8339 17.3199 21.7421C17.1762 21.7495 16.816 21.792 16.7229 21.6742C16.7394 21.6098 16.9861 21.3611 17.0534 21.282C17.1401 21.34 17.4487 21.5342 17.4718 21.604L17.4318 21.6557L17.4387 21.6832L17.5127 21.6945C17.8725 21.5076 17.656 20.6871 17.765 20.5179Z" fill="#D4D4CC"/>
<path id="Vector_69" d="M17.5438 23.2866L17.5611 23.3029C17.583 23.3819 17.6666 24.1777 17.6766 24.2942C17.7128 24.7117 17.9873 26.2053 17.9336 26.5059C17.9111 26.4836 17.8745 26.3647 17.861 26.3264C17.567 25.4629 17.3665 24.4487 17.2324 23.5461C17.336 23.4628 17.4413 23.3722 17.5438 23.2866Z" fill="#D4D4CC"/>
<path id="Vector_70" d="M25.9219 33.3425C25.9634 33.5493 25.3012 34.9575 25.1315 35.1411C24.6478 35.1724 24.1617 35.0339 23.7014 34.928C23.2331 34.8203 22.7326 34.1304 22.5113 33.7205C22.516 33.6318 22.5049 33.573 22.5466 33.5051C22.6443 33.5532 23.1637 34.4485 23.4289 34.6016C23.7259 34.773 24.8004 35.0391 25.0804 34.9563C25.2934 34.8931 25.7207 33.6719 25.906 33.3684L25.9219 33.3425Z" fill="#D4D4CC"/>
<path id="Vector_71" d="M22.4355 29.6748C22.4755 29.6956 22.8774 30.1509 22.9505 30.2273C22.7277 30.4499 22.5491 30.6072 22.299 30.7939C22.1734 30.7876 21.9117 30.4934 21.8082 30.3872C22.0218 30.1516 22.2336 29.9209 22.4355 29.6748Z" fill="#D4D4CC"/>
<path id="Vector_72" d="M22.4193 29.9321C22.5192 30.0178 22.6324 30.1416 22.7258 30.2388C22.6003 30.3992 22.4734 30.5049 22.3158 30.6313C22.2261 30.5999 22.0878 30.4314 22.0237 30.3574C22.1403 30.1995 22.2735 30.0627 22.4193 29.9321Z" fill="#1A1A19"/>
<path id="Vector_73" d="M22.9831 36.1194C23.3969 36.397 23.6866 36.4102 24.1723 36.4763L24.1053 36.8037C23.896 36.793 23.7323 36.7778 23.5258 36.7534L23.2192 36.7175C23.1865 36.9238 23.1622 37.1685 23.1367 37.3789C23.0511 37.3264 22.9789 37.2686 22.8995 37.2075C22.9099 36.8779 22.9593 36.4582 22.9831 36.1194Z" fill="#D4D4CC"/>
<path id="Vector_74" d="M31.2702 38.1831C31.7517 38.1907 32.4021 38.7546 31.9516 39.1565C31.9116 39.1619 31.8711 39.1636 31.8308 39.1619C31.5085 39.1472 30.8631 38.5205 31.2702 38.1831Z" fill="#D4D4CC"/>
<path id="Vector_75" d="M21.3071 10.4249C22.2115 10.4141 22.1312 10.3818 22.8366 10.9708C22.7296 11.0546 22.7155 11.0674 22.6337 11.175L22.568 11.3806C22.2186 11.0735 21.5624 10.715 21.3071 10.4249Z" fill="#D4D4CC"/>
<path id="Vector_76" d="M17.0507 32.6565C17.8362 32.8328 18.475 33.3562 18.5562 34.2058C18.5752 34.4048 18.5423 34.7168 18.4515 34.8967L18.4224 34.897L18.2961 34.709C18.484 34.1157 18.2435 33.5574 17.7476 33.1848C17.6903 33.1418 17.6009 33.0823 17.5325 33.0955C17.4974 33.1418 17.4766 33.1841 17.4232 33.1977C17.3371 33.1111 17.1294 32.7771 17.0507 32.6565Z" fill="#D4D4CC"/>
<path id="Vector_77" d="M30.4429 21.534C30.66 21.631 31.2328 21.9082 31.4323 21.8874L31.4804 21.8709C31.5356 22.0805 31.5351 22.3136 31.5387 22.5301C30.859 22.3777 30.6868 22.1534 30.4429 21.534Z" fill="#D4D4CC"/>
<path id="Vector_78" d="M19.1065 21.5464C19.4217 21.7113 21.6717 23.6157 21.8377 23.903C21.798 23.9013 21.7391 23.8794 21.709 23.8536C20.8878 23.1475 20.0368 22.48 19.2015 21.7914C19.1253 21.7285 19.1236 21.6413 19.1065 21.5464Z" fill="#D4D4CC"/>
<path id="Vector_79" d="M15.281 24.7339C15.3094 24.7419 15.3454 24.7568 15.3739 24.7676C15.4815 24.9372 15.5475 25.6421 15.5991 25.8926C15.6769 26.2707 15.835 26.3252 16.1524 26.5405L16.2309 26.8457C16.0196 26.7563 15.5985 26.5034 15.4538 26.3196C15.3897 25.7917 15.332 25.2632 15.281 24.7339Z" fill="#D4D4CC"/>
<path id="Vector_80" d="M31.687 21.9299C31.9617 21.889 32.0652 21.8553 32.2898 21.6995C32.3814 21.9685 32.3819 22.0484 32.3821 22.3378C32.2801 22.3946 32.155 22.4275 32.1848 22.5519L32.1726 22.5917C32.0115 22.5885 31.8728 22.5786 31.7119 22.5652C31.7194 22.3168 31.7104 22.1718 31.687 21.9299Z" fill="#D4D4CC"/>
<path id="Vector_81" d="M18.7722 21.7965C18.7977 21.8166 18.8187 21.8421 18.8411 21.8662C18.7978 21.9923 16.9 23.5441 16.6926 23.6395C16.5153 23.6391 16.3972 23.6223 16.2201 23.5986C16.1746 23.529 16.1618 23.5373 16.173 23.4773C16.2484 23.458 16.4933 23.5076 16.602 23.5187L16.6296 23.5072C16.8605 23.413 17.4011 22.9222 17.6248 22.7374L18.7722 21.7965Z" fill="#D4D4CC"/>
<path id="Vector_82" d="M25.0341 37.5701L25.0648 37.583C25.12 37.7046 25.1564 37.9126 25.1857 38.0488C25.101 38.1387 25.017 38.2293 24.9339 38.3206C24.8416 38.7439 24.8414 39.5647 24.774 40.0588C24.7647 40.0752 24.7454 40.0903 24.7306 40.1045L24.6986 40.0776C24.6763 39.9414 24.7254 39.2549 24.7352 39.0691C24.7618 38.6128 24.7752 38.1558 24.7752 37.6987L25.0341 37.5701Z" fill="#D4D4CC"/>
<path id="Vector_83" d="M25.6266 35.4368C25.7111 35.4946 25.7385 35.5605 25.791 35.6497C25.5212 36.2085 25.2877 36.7146 25.058 37.2903L24.7662 37.4373C24.7227 37.4595 24.7264 37.4597 24.678 37.4563C24.6373 37.3833 24.6561 37.2617 24.6607 37.1721C24.7601 37.156 24.8594 37.1406 24.9591 37.1257C24.9969 37.0449 25.026 36.9614 25.0545 36.877C25.2213 36.387 25.4257 35.9136 25.6266 35.4368Z" fill="#D4D4CC"/>
<path id="Vector_84" d="M19.3041 17.7299L19.3775 17.7518C19.4455 17.8346 19.4153 18.3063 19.4147 18.4455C19.5866 18.4964 19.7701 18.5084 19.9489 18.5268L19.9423 18.0278C20.047 18.0389 20.1772 18.0362 20.253 18.0993C20.3036 18.1806 20.2925 18.2657 20.2945 18.3654C20.3009 18.5075 20.3103 18.6508 20.3185 18.7929C19.9687 18.7125 19.6438 18.6513 19.2916 18.5877C19.2855 18.3511 19.2738 17.9576 19.3041 17.7299Z" fill="#D4D4CC"/>
<path id="Vector_85" d="M18.5048 21.3469C18.5873 21.4184 18.6495 21.5112 18.7156 21.5992C18.3143 21.9189 16.3968 24.1278 16.1634 22.6318C16.1665 22.5374 16.1654 22.3994 16.2176 22.3224C16.2906 22.4205 16.2815 22.7399 16.3948 22.9311C16.8155 23.2297 17.4179 22.6262 17.7259 22.3641C18.0384 22.0982 18.4824 21.7741 18.5048 21.3469Z" fill="#D4D4CC"/>
<path id="Vector_86" d="M33.0917 18.2116C33.3913 18.2855 33.8142 18.4419 34.0845 18.5817C33.9995 18.6286 33.9854 18.6174 33.9495 18.6877L33.9714 18.7332L32.9376 18.9113C33.0622 18.6133 33.0692 18.5395 33.0917 18.2116Z" fill="#D4D4CC"/>
<path id="Vector_87" d="M20.8821 26.3057C20.8949 26.3083 20.9314 26.3274 20.945 26.334C21.0319 26.5081 21.0855 27.5208 21.1219 27.8071C20.9875 27.9082 20.998 27.927 20.999 28.0881C20.8816 27.9641 20.8538 27.8262 20.8432 27.6589C20.8181 27.2637 20.7391 26.8586 20.7121 26.4668C20.7379 26.3955 20.8175 26.3525 20.8821 26.3057Z" fill="#D4D4CC"/>
<path id="Vector_88" d="M15.1901 27.7976C15.2645 27.8567 15.4501 28.1108 15.5431 28.1997C15.8516 28.4951 16.2013 28.7497 16.5664 28.9675L16.5967 29.2107C16.1356 28.9531 15.5106 28.5493 15.1788 28.1396C15.1783 28.0332 15.1861 27.9058 15.1901 27.7976Z" fill="#D4D4CC"/>
<path id="Vector_89" d="M14.5529 26.5549C14.5666 26.5679 14.5804 26.5806 14.5942 26.5933C14.6815 26.7002 14.5738 27.1748 14.5401 27.3071C14.4077 27.8284 14.5466 28.4998 14.4966 28.9812L14.4726 28.9832C14.4509 28.9524 14.3616 28.8237 14.3528 28.7979C14.1798 28.2913 14.3933 27.0251 14.5529 26.5549Z" fill="#D4D4CC"/>
<path id="Vector_90" d="M21.4022 37.4907C21.5797 37.4177 21.7828 37.5022 21.8563 37.6795C21.9298 37.8567 21.8461 38.0598 21.6691 38.134C21.4913 38.2083 21.2869 38.1243 21.2131 37.9463C21.1393 37.7683 21.224 37.5642 21.4022 37.4907Z" fill="#D4D4CC"/>
<path id="Vector_91" d="M21.4649 37.5899C21.5803 37.5535 21.7034 37.6174 21.7395 37.7329C21.7757 37.8486 21.711 37.9714 21.5954 38.0071C21.4803 38.0427 21.3582 37.9785 21.3223 37.8635C21.2863 37.7485 21.3501 37.6262 21.4649 37.5899Z" fill="#1A1A19"/>
<path id="Vector_92" d="M19.5622 13.1136C19.6104 13.1292 19.6581 13.1463 19.7052 13.1648C20.5104 13.484 20.4121 14.6034 20.1387 15.2525L20.0995 15.2734L20.0572 15.2418C20.0186 15.1219 20.3028 14.4641 20.1541 14.0026C19.9981 13.5181 19.5943 13.4075 19.5622 13.1136Z" fill="#D4D4CC"/>
<path id="Vector_93" d="M32.2706 23.0767C32.3594 23.0937 32.325 23.0734 32.3851 23.126C32.47 23.5685 31.7749 25.071 31.4492 25.3892C31.4147 25.3601 31.3798 25.3259 31.3469 25.2949C31.3437 25.2776 31.3403 25.2603 31.3371 25.2432C31.4472 25.1274 31.5468 25.0325 31.6169 24.895C31.9353 24.2706 32.1929 23.779 32.2706 23.0767Z" fill="#D4D4CC"/>
<path id="Vector_94" d="M18.4043 15.3341C18.536 15.4828 18.6307 15.76 18.9308 15.8253C19.4633 15.9412 19.5348 15.6421 19.8604 15.4621L19.9003 15.4798C19.9032 15.5819 19.9104 15.5424 19.8544 15.6357C19.6702 15.8304 19.5117 15.9698 19.2375 16.0295C18.875 16.1083 18.3792 15.8984 18.3074 15.5019C18.2954 15.4355 18.3634 15.3813 18.4043 15.3341Z" fill="#D4D4CC"/>
<path id="Vector_95" d="M18.1222 18.0206C18.1683 18.0278 18.1651 18.0291 18.201 18.0599C18.2402 18.3022 18.1387 19.2737 18.0005 19.5163C17.957 19.5926 17.8592 19.6852 17.7704 19.7159L17.7408 19.6899C17.7628 19.5557 17.9224 19.4766 17.9505 19.3532C17.9975 19.1469 18.0097 18.9126 18.0275 18.7023L18.0303 18.6071C17.9248 18.5655 17.071 18.8669 16.9286 18.7966L16.9276 18.7531C17.0096 18.6743 17.8595 18.5194 18.0433 18.481C18.0652 18.3095 18.08 18.1871 18.1222 18.0206Z" fill="#D4D4CC"/>
<path id="Vector_96" d="M20.5993 31.063C20.6634 31.094 20.6789 31.0996 20.7353 31.147C20.7399 31.3398 20.5119 31.6431 20.4902 31.8696C20.4522 32.2661 20.5794 32.626 20.5934 33.0125C20.5447 33.0103 20.5224 33.0063 20.4739 32.9998C20.4044 32.8936 20.3906 32.5876 20.3597 32.4578C20.2172 31.8569 20.3566 31.6165 20.5993 31.063Z" fill="#D4D4CC"/>
<path id="Vector_97" d="M18.473 17.9381L18.4988 17.9645C18.5389 18.1596 18.427 19.1587 18.3754 19.4056C18.3146 19.5846 18.1641 19.7525 18.145 19.9433C18.1154 20.2377 18.6287 20.4511 18.607 20.7126C18.258 20.4064 18.1011 20.3036 18.0464 19.8357C18.188 19.544 18.1838 19.5472 18.2606 19.2563C18.338 18.9635 18.3389 18.1208 18.473 17.9381Z" fill="#D4D4CC"/>
<path id="Vector_98" d="M19.8941 14.0075L19.9459 14.0632C20.0211 14.2855 19.9958 14.7847 19.7894 14.9392C19.7096 14.942 19.7317 14.9367 19.6502 14.8633L19.4827 14.719C19.5223 14.5502 19.543 14.3945 19.5673 14.2236C19.7028 14.1143 19.74 14.0854 19.8941 14.0075Z" fill="#D4D4CC"/>
<path id="Vector_99" d="M19.7275 14.3478C19.8003 14.3155 19.8855 14.3472 19.9197 14.4191C19.9538 14.491 19.9244 14.5771 19.8534 14.6131C19.8057 14.6372 19.7488 14.6336 19.7046 14.6037C19.6603 14.5737 19.6359 14.5222 19.6406 14.469C19.6454 14.4158 19.6787 14.3694 19.7275 14.3478Z" fill="#1A1A19"/>
<path id="Vector_100" d="M19.1551 36.1914C19.9159 36.3919 20.163 37.2974 19.8527 37.9771C19.8054 37.9334 19.7808 37.8518 19.7555 37.7888C19.9253 37.0725 19.8727 36.9514 19.2973 36.4302C19.2265 36.366 19.1912 36.2781 19.1551 36.1914Z" fill="#D4D4CC"/>
<path id="Vector_101" d="M23.145 9.97983C23.374 10.0823 23.6156 10.7975 23.7676 10.8227L23.7988 10.7728C23.8023 10.515 23.4551 10.1664 23.5171 10.0132C23.6834 10.0048 23.6945 10.0588 23.7862 10.1835L24.1628 10.8013C23.9366 10.8419 23.9086 10.8713 23.76 11.0412C23.579 10.6914 23.311 10.3305 23.145 9.97983Z" fill="#D4D4CC"/>
<path id="Vector_102" d="M19.8605 11.2243C19.7647 11.1945 19.4654 11.111 19.4073 11.0619C19.3984 10.9646 19.4665 10.8811 19.5217 10.8066C19.7516 10.4964 20.0136 10.6419 20.2909 10.7653C20.0807 10.8965 19.9891 10.988 19.8951 11.229L19.8605 11.2243Z" fill="#D4D4CC"/>
<path id="Vector_103" d="M32.4124 20.987C32.5877 21.1501 32.7393 21.9856 32.6658 22.233C32.6368 22.3308 32.396 22.4359 32.3098 22.4794C32.6588 22.1269 32.5674 21.9055 32.4866 21.4674L32.4397 21.2959L32.4185 21.2858C32.2605 21.4514 31.9604 21.8789 31.6835 21.8011C31.6135 21.7814 31.5966 21.7052 31.5676 21.6424C32.1289 21.6139 32.1785 21.4452 32.4124 20.987Z" fill="#D4D4CC"/>
<path id="Vector_104" d="M22.6295 37.2695C22.7098 37.2962 22.8815 37.5562 23.0425 37.6692C23.2923 37.71 23.9257 37.7378 24.2085 37.717C24.2039 37.7173 24.3417 37.6355 24.3548 37.6279C24.3963 37.6758 24.3841 37.7063 24.3914 37.7852C24.3627 37.8106 24.3117 37.8545 24.2747 37.8577C23.8606 37.895 23.3313 37.855 22.918 37.8337C22.7924 37.7039 22.5514 37.4536 22.6295 37.2695Z" fill="#D4D4CC"/>
<path id="Vector_105" d="M22.9065 11.0484C23.0469 11.1264 23.2924 11.3321 23.4257 11.4401C23.2587 11.5808 23.238 11.6359 23.1743 11.8396C23.0898 11.8085 22.7493 11.5131 22.6597 11.4376C22.7343 11.2519 22.7716 11.1872 22.9065 11.0484Z" fill="#D4D4CC"/>
<path id="Vector_106" d="M20.4296 10.8657C20.5858 10.9297 20.7491 11.0713 20.8859 11.1784C20.671 11.2624 20.5673 11.3235 20.4794 11.5475C20.3437 11.4858 20.1483 11.3509 20.0177 11.2665C20.1296 11.0325 20.1918 10.9825 20.4296 10.8657Z" fill="#D4D4CC"/>
<path id="Vector_107" d="M19.4171 12.6232C19.476 12.6247 19.5348 12.629 19.5933 12.6363C19.9797 12.686 20.3114 12.8391 20.5516 13.1549C20.7509 13.4146 20.8386 13.7429 20.7952 14.0673L20.7531 14.0611C20.7345 14.0388 20.6456 13.6932 20.6285 13.6397C20.4403 13.0462 20.0408 12.9014 19.4852 12.747C19.4317 12.7321 19.4315 12.676 19.4171 12.6232Z" fill="#D4D4CC"/>
<path id="Vector_108" d="M25.3339 12.8761C25.4867 13.05 25.5847 13.2323 25.6977 13.4335C25.4428 13.4773 25.2777 13.4854 25.3534 13.7919C25.2597 13.6746 25.0543 13.3399 24.9657 13.2022L25.005 13.1288C25.1158 12.9972 25.1788 12.9597 25.3339 12.8761Z" fill="#D4D4CC"/>
<path id="Vector_109" d="M25.1596 13.0987C25.2592 13.1875 25.3288 13.3737 25.2646 13.5041L25.1688 13.3557C25.0836 13.2251 25.0758 13.2237 25.1596 13.0987Z" fill="#1A1A19"/>
<path id="Vector_110" d="M23.3843 36.9087C23.5762 36.9309 23.7683 36.9507 23.9607 36.9675C23.9242 37.124 23.896 37.3191 23.8683 37.4802C23.6829 37.4717 23.4977 37.46 23.3128 37.4456C23.3412 37.2759 23.3619 37.0813 23.3843 36.9087Z" fill="#D4D4CC"/>
<path id="Vector_111" d="M23.161 34.9724L23.3831 35.1064C23.3028 35.4126 23.304 35.3791 23.382 35.7068C23.4134 35.8381 23.375 35.9636 23.3477 36.0999C23.2421 36.1072 23.0921 35.9702 23.0136 35.9036C23.0386 35.6389 23.1161 35.2441 23.161 34.9724Z" fill="#D4D4CC"/>
<path id="Vector_112" d="M23.6232 35.6614C23.8005 35.6865 23.9764 35.7214 24.1524 35.7546L24.0298 36.2744C23.8996 36.2761 23.6499 36.2183 23.5229 36.1892L23.6232 35.6614Z" fill="#D4D4CC"/>
<path id="Vector_113" d="M18.3859 27.019C18.5062 27.071 18.5929 27.4746 18.7306 27.6502C18.9011 27.8674 19.0208 27.9912 19.2525 28.1543C19.2308 28.041 19.1748 27.8118 19.2141 27.707L19.2459 27.7214L19.2103 27.7244L19.2588 27.7432C19.3082 27.8318 19.3305 27.9343 19.3582 28.033L19.4826 28.541C18.7934 27.9719 18.564 27.8965 18.3859 27.019Z" fill="#D4D4CC"/>
<path id="Vector_114" d="M28.3045 17.8774C28.5511 17.9201 29.6501 17.8711 29.7333 18.1376L29.6557 18.2696C29.2887 18.0433 28.8507 18.0701 28.4512 18.1827C28.4075 18.0843 28.3518 17.9755 28.3045 17.8774Z" fill="#D4D4CC"/>
<path id="Vector_115" d="M23.5368 35.1318C23.819 35.2129 24.1443 35.2715 24.4351 35.3301L24.348 35.6155C24.1016 35.5855 23.7279 35.5017 23.4748 35.4531L23.5368 35.1318Z" fill="#D4D4CC"/>
<path id="Vector_116" d="M24.0487 10.9381L24.173 10.9339C24.3188 11.0045 24.4544 11.3471 24.5342 11.5118C24.4248 11.5239 24.3742 11.5343 24.2675 11.5616L24.1449 11.6449C24.0902 11.5872 23.883 11.1875 23.8598 11.1022C23.9158 11.0172 23.9643 10.9945 24.0487 10.9381Z" fill="#D4D4CC"/>
<path id="Vector_117" d="M19.3322 24.0642C19.4049 24.133 19.8284 24.7463 19.9158 24.8706C19.8611 24.9402 19.7983 25.0117 19.7408 25.0798L19.7297 25.083C19.6848 25.0603 19.2446 24.3803 19.1781 24.2823C19.2259 24.2101 19.2816 24.1352 19.3322 24.0642Z" fill="#D4D4CC"/>
<path id="Vector_118" d="M26.2991 33.3464C26.3982 33.3438 26.4217 33.3384 26.5145 33.366C26.5408 33.4705 26.2647 34.3535 26.2176 34.5149C26.2 34.5342 26.2127 34.5252 26.1724 34.5278L26.033 34.3911C26.1143 34.0471 26.2112 33.6899 26.2991 33.3464Z" fill="#D4D4CC"/>
<path id="Vector_119" d="M21.0328 24.8198C21.1643 24.873 21.3145 25.1677 21.4138 25.2688C22.0057 25.8713 21.7783 26.3877 21.9033 27.137C21.6013 26.9922 21.7877 26.2151 21.6898 25.8889C21.5792 25.5205 21.0886 25.1343 21.0328 24.8198Z" fill="#D4D4CC"/>
<path id="Vector_120" d="M14.1425 24.3866L14.5009 24.5591C14.4916 25.1357 15.1451 24.9829 15.1511 25.408C14.8156 25.1995 14.4203 24.9651 14.1201 24.7168L14.1425 24.3866Z" fill="#D4D4CC"/>
<path id="Vector_121" d="M20.4795 11.5475C20.6817 11.4796 20.8368 11.2501 21.092 11.324C21.1587 11.376 21.1547 11.3735 21.1826 11.4547C21.0176 11.6795 20.7628 11.3413 20.5034 12.1158C20.3292 12.049 19.9899 11.8968 19.8921 11.7354L19.984 11.7189C20.1582 11.7805 20.2941 11.8853 20.4236 12.0133C20.4834 11.827 20.6289 11.683 20.4795 11.5475Z" fill="#D4D4CC"/>
<path id="Vector_122" d="M21.0875 28.5061C21.4681 28.6875 21.9394 28.8303 22.2817 28.9995C22.279 29.0854 22.2635 29.0791 22.2083 29.1645C22.0639 29.197 21.2379 28.7659 21.0843 28.6719C21.0465 28.6074 21.0662 28.6057 21.0875 28.5061Z" fill="#D4D4CC"/>
<path id="Vector_123" d="M15.3223 30.2207C15.7156 30.509 16.108 30.7095 16.5304 30.9482C16.583 30.978 16.5731 31.0281 16.5761 31.0806L16.5549 31.1045L16.4505 31.0686C16.3146 31.0203 16.0846 30.877 16.0038 30.8816C15.9322 30.9458 15.95 30.9458 15.9142 31.0515L15.8886 31.0632C15.8429 31.0027 15.8306 30.823 15.8246 30.8174C15.615 30.6201 15.4775 30.4663 15.3223 30.2207Z" fill="#D4D4CC"/>
<path id="Vector_124" d="M31.4091 13.7727C31.5541 13.8013 31.6037 13.814 31.7414 13.8668C31.8571 14.2329 31.9355 14.9357 31.9275 15.3257C31.8967 15.3191 31.8178 15.3029 31.8122 15.2711C31.7414 14.8748 31.7734 14.4281 31.642 14.0469C31.5988 13.9212 31.4001 14.0117 31.4091 13.7727Z" fill="#D4D4CC"/>
<path id="Vector_125" d="M23.3591 30.1885C23.4022 30.2122 23.616 30.3843 23.6585 30.4219C23.9314 30.6638 24.492 30.9116 24.7252 31.1543L24.722 31.2278C24.4727 31.2021 23.9136 30.7583 23.6709 30.6162C23.5066 30.52 23.3143 30.3943 23.3591 30.1885Z" fill="#D4D4CC"/>
<path id="Vector_126" d="M19.2797 14.5L19.2982 14.5232C19.322 14.7339 19.1633 14.9053 19.2655 15.0335C19.3283 14.9947 19.3382 14.9488 19.3776 14.8766C19.4699 14.9203 19.532 15.0133 19.5777 15.1001C19.5597 15.1715 19.5547 15.1534 19.4681 15.2072C19.2779 15.217 18.9788 15.1319 18.8828 14.9568C18.8932 14.8014 19.1464 14.6243 19.2797 14.5Z" fill="#D4D4CC"/>
<path id="Vector_127" d="M30.6971 27.0454C30.7337 27.0803 30.7313 27.0884 30.7557 27.1365C30.7699 27.3381 30.386 28.7971 30.2967 29.0442C30.2019 28.9773 30.2656 28.7895 30.291 28.6836C30.4214 28.1401 30.5362 27.5798 30.6971 27.0454Z" fill="#D4D4CC"/>
<path id="Vector_128" d="M22.4816 34.7942L22.6213 34.9802C22.6092 35.1729 22.592 35.3689 22.5772 35.5618C22.4471 35.585 22.2918 35.5872 22.3028 35.752C22.3601 35.8396 22.4351 35.8652 22.5301 35.9153L22.4673 36.3733C22.3593 36.4058 22.2985 36.4236 22.1943 36.4724L22.1638 36.502C22.1598 36.4382 22.1577 36.4416 22.1784 36.3818C22.4 36.2573 22.3945 36.2007 22.4165 35.9702C22.3471 35.9228 22.2512 35.8677 22.1777 35.8225L22.2024 35.5388L22.4669 35.4727C22.5005 35.2512 22.4898 35.0178 22.4816 34.7942Z" fill="#D4D4CC"/>
<path id="Vector_129" d="M25.7639 13.8203L25.8698 13.822C26.0085 13.9106 26.0867 14.1997 26.1453 14.3618L25.9255 14.3294L25.6 14.2709L25.4894 14.0282C25.6054 13.9109 25.6191 13.8952 25.7639 13.8203Z" fill="#D4D4CC"/>
<path id="Vector_130" d="M30.4854 18.1011C30.514 18.0821 30.5428 18.0635 30.5718 18.0454C31.0765 17.7338 31.9204 17.899 32.4737 18.0276C32.3958 18.0738 32.3887 18.0713 32.2959 18.0784C31.7299 17.9623 31.0514 18.0088 30.4854 18.1011Z" fill="#D4D4CC"/>
<path id="Vector_131" d="M20.3533 25.384C20.5093 25.5691 20.6094 25.7581 20.7188 25.9717L20.5022 26.1643C20.3904 26.0144 20.2478 25.7874 20.1404 25.6265L20.3533 25.384Z" fill="#D4D4CC"/>
<path id="Vector_132" d="M18.4996 24.5064C18.4995 24.3655 18.8275 23.8053 18.9254 23.692L18.9631 23.6985C18.9865 23.7667 18.9958 23.8007 19.0109 23.8712C19.0576 23.8869 19.0705 23.8903 19.119 23.8985C19.1291 23.9804 18.9963 24.151 18.9456 24.224C18.9228 24.1268 18.9179 24.0544 18.8507 23.984L18.8269 23.9865C18.7647 24.1981 18.9649 24.3747 18.8289 24.4548L18.6681 24.2586L18.6441 24.2564C18.6966 24.5386 18.6538 24.457 18.6645 24.6877L18.6571 24.7007C18.5916 24.6321 18.5554 24.5815 18.4996 24.5064Z" fill="#D4D4CC"/>
<path id="Vector_133" d="M14.0901 24.8965C14.2716 25.0144 15.1682 25.7134 15.22 25.8906C14.9839 25.7927 14.2912 25.2849 14.0749 25.1174L14.0901 24.8965Z" fill="#D4D4CC"/>
<path id="Vector_134" d="M22.0338 32.8806C22.0705 32.8813 22.2519 32.8806 22.2645 32.8994C22.3849 33.0803 22.1299 33.5356 22.0301 33.6772C21.974 33.6916 21.8738 33.5769 21.8312 33.5381C21.9749 33.3254 22.0083 33.1289 22.0338 32.8806Z" fill="#D4D4CC"/>
<path id="Vector_135" d="M31.0148 25.614C31.0436 25.6221 31.0829 25.6379 31.1122 25.6487C31.1576 25.7468 30.8507 26.8994 30.808 27.0662L30.7638 27.0625C30.6466 26.9192 30.9559 25.8364 31.0148 25.614Z" fill="#D4D4CC"/>
<path id="Vector_136" d="M14.7274 25.8662C14.8811 25.9653 14.7848 26.0486 14.8383 26.2097C14.9213 26.4602 15.1484 26.6226 15.2669 26.8564C15.2926 26.9072 15.245 27.0007 15.2229 27.0632C15.1512 27.0229 14.8603 26.6028 14.8148 26.5034C14.6819 26.2131 14.6342 26.1631 14.7274 25.8662Z" fill="#D4D4CC"/>
<path id="Vector_137" d="M21.925 24.4353C22.1531 24.5823 22.2092 25.0745 22.2599 25.3254L22.0357 25.7732C22.0207 25.794 22.0319 25.783 21.9945 25.7964C21.882 25.5935 22.092 25.5396 22.0789 25.26C22.066 24.9883 21.9792 24.7073 21.925 24.4353Z" fill="#D4D4CC"/>
<path id="Vector_138" d="M24.0236 13.23C24.1667 13.3193 24.542 13.4462 24.627 13.5499L24.5831 13.6872C24.6248 13.8213 25.1073 13.801 25.1947 13.9389C24.9562 13.9675 24.6773 13.8291 24.606 13.8464L24.5479 13.9673C24.5005 13.8185 24.5125 13.3326 24.2308 13.4423C24.1954 13.5421 24.2179 13.6033 24.2832 13.6828L24.1369 13.8066L24.1046 13.7732C24.1049 13.6171 24.1097 13.5674 24.0448 13.4256L24.0312 13.3967C24.0716 13.4608 24.0953 13.5148 24.1598 13.5515C24.2152 13.4381 24.0867 13.3183 24.0236 13.23Z" fill="#D4D4CC"/>
<path id="Vector_139" d="M22.4602 29.0881C22.5921 29.1321 23.2604 29.7776 23.2841 29.9072L23.2411 29.9578C22.8582 29.6724 22.8103 29.4751 22.3535 29.2471C22.3511 29.1887 22.4111 29.144 22.4602 29.0881Z" fill="#D4D4CC"/>
<path id="Vector_140" d="M16.4705 20.8058C16.5384 20.8391 16.8122 21.0938 16.8858 21.1596L16.7245 21.353L16.5594 21.5611C16.4562 21.2668 16.4221 21.1126 16.4705 20.8058Z" fill="#D4D4CC"/>
<path id="Vector_141" d="M24.6111 35.3498C24.629 35.3572 24.6683 35.3809 24.6866 35.3913C24.7078 35.5395 24.5538 36.0007 24.4834 36.1523C24.4441 36.2371 24.3971 36.2373 24.3167 36.2668C24.2604 36.2434 24.2823 36.2622 24.2519 36.2056C24.2589 36.0923 24.2679 35.9338 24.3261 35.833C24.3498 35.7922 24.3783 35.7981 24.4368 35.7839C24.5057 35.7371 24.5784 35.4497 24.6111 35.3498Z" fill="#D4D4CC"/>
<path id="Vector_142" d="M19.4034 10.6671L19.4244 10.7023C19.4046 10.7329 19.385 10.7637 19.3657 10.7946C19.2179 11.0322 19.1607 11.2398 19.2257 11.5188C19.3616 11.6214 19.6926 11.5364 19.7687 11.7437C18.8043 11.7672 18.995 10.82 19.4034 10.6671Z" fill="#D4D4CC"/>
<path id="Vector_143" d="M27.9765 31.6741C28.1367 31.6443 28.3198 31.668 28.4795 31.6931C28.4678 32.2429 28.3548 32.5877 27.8769 32.9099L27.8535 32.9028C27.865 32.8189 28.1738 32.5459 28.2586 32.3408C28.3687 32.0742 28.3697 32.0906 28.4036 31.7825C28.2083 31.7537 28.1011 31.8074 27.9765 31.6741Z" fill="#D4D4CC"/>
<path id="Vector_144" d="M22.4623 30.9473C22.593 30.9739 23.0312 31.2537 23.0931 31.373C23.0787 31.4673 23.0978 31.4272 23.036 31.4978C22.8503 31.3743 22.5573 31.2209 22.3546 31.1018C22.3595 31.0405 22.413 31.0022 22.4623 30.9473Z" fill="#D4D4CC"/>
<path id="Vector_145" d="M30.158 29.3106C30.253 29.4192 29.9145 30.3804 29.8384 30.5288C29.6987 30.3694 30.0173 29.4678 30.158 29.3106Z" fill="#D4D4CC"/>
<path id="Vector_146" d="M17.0431 20.3054C17.2479 20.3071 17.3325 20.3978 17.4563 20.5433L17.1919 20.8265C17.0843 20.7644 16.9455 20.7022 16.8921 20.6005L16.8993 20.6365L16.8852 20.6175L16.8895 20.6C16.9616 20.5984 17.0219 20.6051 17.0848 20.5728C17.104 20.5074 17.0612 20.3788 17.0431 20.3054Z" fill="#D4D4CC"/>
<path id="Vector_147" d="M17.7142 16.081C17.7651 16.1289 17.875 16.4068 17.9519 16.4996C18.0386 16.6041 18.241 16.7082 18.2775 16.8046L18.2353 16.8433C17.9599 16.8036 17.6823 16.5074 17.6259 16.2346C17.6127 16.1708 17.6747 16.125 17.7142 16.081Z" fill="#D4D4CC"/>
<path id="Vector_148" d="M16.9302 19.8873C17.1515 19.888 17.7941 19.9895 17.689 20.307C17.5228 20.4021 17.4462 20.1411 17.2813 20.0967C17.175 20.0681 17.09 20.0712 16.9841 20.0334L16.9302 19.8873Z" fill="#D4D4CC"/>
<path id="Vector_149" d="M22.0048 31.824C22.0791 31.8828 22.0598 32.0269 22.0619 32.1211C22.3193 32.2124 22.3097 32.2058 22.5404 32.1047C22.5869 32.1646 22.5761 32.2075 22.5843 32.2935C22.3992 32.4536 22.1601 32.3494 21.9692 32.2651C21.9717 32.0981 21.968 31.9863 22.0048 31.824Z" fill="#D4D4CC"/>
<path id="Vector_150" d="M31.4323 21.8874C31.195 21.5784 30.619 21.6468 30.3611 21.2756L30.3755 21.2501C30.6939 21.3967 31.0677 21.5262 31.3776 21.6785C31.4172 21.6979 31.4474 21.7788 31.4626 21.8208L31.4804 21.8709L31.4323 21.8874Z" fill="#D4D4CC"/>
<path id="Vector_151" d="M30.165 20.4753C30.303 20.5384 30.5369 20.7961 30.7286 20.8878C30.92 20.9794 31.2909 20.999 31.3886 21.1052C30.9818 21.1746 30.3176 20.8807 30.165 20.4753Z" fill="#D4D4CC"/>
<path id="Vector_152" d="M16.2401 27.3723L16.3119 27.407C16.3737 27.5422 16.3305 28.3174 16.3167 28.5049C16.2674 28.4744 16.2751 28.4768 16.2331 28.4348C16.1737 28.2253 16.2254 27.6221 16.2401 27.3723Z" fill="#D4D4CC"/>
<path id="Vector_153" d="M23.3232 13.182C23.6575 13.2305 23.6305 13.3133 23.6062 13.6197C23.4775 13.6134 23.4341 13.6216 23.3108 13.6411C23.3117 13.488 23.3158 13.3349 23.3232 13.182Z" fill="#D4D4CC"/>
<path id="Vector_154" d="M20.5418 23.1606L20.5675 23.18C20.5715 23.2892 20.2017 23.6589 20.1002 23.8268C20.1999 23.9593 20.3461 24.0961 20.3177 24.2615C20.1595 24.1291 20.0862 23.9994 19.9877 23.8216C20.1334 23.615 20.3649 23.3425 20.5418 23.1606Z" fill="#D4D4CC"/>
<path id="Vector_155" d="M21.8334 32.3901C21.9932 32.4717 22.1414 32.5408 22.3263 32.5491C22.416 32.5532 22.4883 32.5295 22.5727 32.5564L22.5595 32.668C22.329 32.7942 21.8768 32.7293 21.8334 32.3901Z" fill="#D4D4CC"/>
<path id="Vector_156" d="M20.1566 25.1189C20.1633 25.3118 19.4759 26.1772 19.3144 26.3516L19.3054 26.3084C19.3536 26.1531 20.0252 25.2524 20.1566 25.1189Z" fill="#D4D4CC"/>
<path id="Vector_157" d="M20.8936 25.0188C20.9577 25.041 20.9944 25.0718 21.0367 25.1235C21.3028 25.448 21.5939 25.7373 21.5775 26.1768C21.5255 26.1262 21.4813 25.9443 21.4435 25.8557C21.3459 25.6267 20.9626 25.2261 20.8936 25.0188Z" fill="#D4D4CC"/>
<path id="Vector_158" d="M15.8472 27.0911L15.9039 27.1396C15.9656 27.2671 15.9046 28.0134 15.895 28.2046C15.8635 28.1785 15.8469 28.1553 15.8205 28.124C15.758 27.9145 15.8166 27.3247 15.8472 27.0911Z" fill="#D4D4CC"/>
<path id="Vector_159" d="M20.415 26.3542C20.4297 26.3667 20.461 26.405 20.4752 26.4216C20.5336 26.7253 20.1728 26.9644 19.9394 27.0825L19.8913 27.0032C19.9185 26.9365 20.2196 26.7556 20.2849 26.6426C20.3452 26.5383 20.3717 26.4653 20.415 26.3542Z" fill="#D4D4CC"/>
<path id="Vector_160" d="M21.0421 29.0252C21.1506 29.1348 21.7222 29.895 21.759 30.0129C21.5646 29.9358 21.0204 29.2441 21.0421 29.0252Z" fill="#D4D4CC"/>
<path id="Vector_161" d="M20.5534 27.1377C20.7732 27.2744 20.5051 27.4446 20.5043 27.5422C20.5594 27.5469 20.5739 27.5523 20.6277 27.5671C20.6808 27.6267 20.6989 27.7383 20.6675 27.8086L20.6155 27.7615C20.5468 27.6907 20.443 27.6006 20.4122 27.5132C20.4371 27.4631 20.4368 27.4719 20.4486 27.4187C20.3967 27.4404 20.3845 27.4448 20.3299 27.4578L20.2915 27.428C20.3003 27.3669 20.486 27.2239 20.5534 27.1377Z" fill="#D4D4CC"/>
<path id="Vector_162" d="M17.3719 16.5632C17.417 16.5922 17.6883 16.891 17.7101 16.9514L17.6667 16.9704C17.2944 17.0845 17.2205 16.8711 17.3719 16.5632Z" fill="#D4D4CC"/>
<path id="Vector_163" d="M18.5515 23.2879C18.5852 23.3314 18.5709 23.3087 18.5776 23.3745C18.4884 23.5659 18.1494 23.8841 17.9916 24.0435L17.9623 23.9545C17.9999 23.8062 18.4263 23.407 18.5515 23.2879Z" fill="#D4D4CC"/>
<path id="Vector_164" d="M25.9658 34.5396C26.0039 34.5723 26.1035 34.6838 26.1433 34.7258C26.1013 34.8901 26.0681 34.9966 26.0102 35.1563L25.8166 34.9277L25.9658 34.5396Z" fill="#D4D4CC"/>
<path id="Vector_165" d="M20.0048 24.9663C20.0404 24.9978 20.0254 24.9788 20.0375 25.0332C19.9652 25.1782 19.3471 25.9751 19.2167 26.123L19.1949 26.0959C19.2495 25.967 19.8849 25.1103 20.0048 24.9663Z" fill="#D4D4CC"/>
<path id="Vector_166" d="M23.4945 39.48C23.658 39.4768 24.1288 39.4397 24.246 39.5083L24.2534 39.6013C24.1084 39.6284 23.8179 39.6436 23.6693 39.6199C23.5592 39.6021 23.5499 39.5608 23.4945 39.48Z" fill="#D4D4CC"/>
<path id="Vector_167" d="M20.9853 23.5728C21.039 23.6036 21.2038 23.7688 21.2353 23.8278C21.2192 23.9035 21.1809 23.919 21.117 23.9811L21.0844 24.0019C20.8732 23.9684 20.8267 23.7377 20.9853 23.5728Z" fill="#D4D4CC"/>
<path id="Vector_168" d="M15.7575 28.8677L15.8233 28.9048C15.9014 29.031 15.8756 29.5442 15.8769 29.7258C15.8443 29.709 15.812 29.689 15.7803 29.6702C15.7083 29.5044 15.7483 29.0613 15.7575 28.8677Z" fill="#D4D4CC"/>
<path id="Vector_169" d="M18.3373 22.6139L18.3513 22.6123C18.5449 22.5884 18.9294 22.6744 19.1195 22.7341C19.2041 22.7607 19.2005 22.7875 19.2274 22.8539C19.1172 22.8541 18.4398 22.7162 18.3495 22.67L18.3373 22.6139Z" fill="#D4D4CC"/>
<path id="Vector_170" d="M22.8679 38.0835L23.3286 38.0837C23.2617 38.1668 23.2238 38.2368 23.171 38.3281C23.1384 38.4111 23.143 38.4463 23.0836 38.4832C23.0067 38.4292 22.9193 38.1909 22.8679 38.0835Z" fill="#D4D4CC"/>
<path id="Vector_171" d="M25.3534 13.7918C25.4784 13.706 25.5139 13.554 25.6748 13.5343C25.7837 13.5686 25.802 13.6114 25.8655 13.7114C25.5341 13.7568 25.5798 13.871 25.4013 13.9139C25.3598 13.8678 25.3639 13.8534 25.3534 13.7918Z" fill="#D4D4CC"/>
<path id="Vector_172" d="M25.7238 12.9981L25.9768 13.0195C26.1196 13.1599 26.3347 13.43 26.2742 13.637C26.1626 13.5768 26.082 13.3185 25.9748 13.2039C25.8598 13.0806 25.7841 13.1127 25.7238 12.9981Z" fill="#D4D4CC"/>
<path id="Vector_173" d="M21.756 27.3061C21.7855 27.3218 21.8458 27.3467 21.8578 27.3721C21.9029 27.4678 21.8867 27.6958 21.9154 27.7883C21.9571 27.9221 22.0753 27.9885 22.1292 28.1523C22.0119 28.0977 21.9032 27.9722 21.8177 27.8765C21.7726 27.6851 21.7639 27.5017 21.756 27.3061Z" fill="#D4D4CC"/>
<path id="Vector_174" d="M23.584 12.4382C23.6646 12.4935 23.7324 12.562 23.804 12.629C23.7656 12.7089 23.7273 12.8059 23.6921 12.8887C23.6054 12.8531 23.5348 12.8366 23.481 12.7637C23.4565 12.6634 23.5358 12.5309 23.584 12.4382Z" fill="#D4D4CC"/>
<path id="Vector_175" d="M20.7359 23.8418C20.8206 23.9107 20.9736 24.0722 20.962 24.1857L20.8646 24.2618C20.7643 24.2668 20.6738 24.1593 20.6598 24.0638C20.6423 23.9441 20.6721 23.935 20.7359 23.8418Z" fill="#D4D4CC"/>
<path id="Vector_176" d="M21.4171 11.4766C21.5859 11.5017 21.9241 11.5247 22.0661 11.6133C22.0974 11.6328 22.0874 11.6772 22.0892 11.7267C21.9983 11.75 21.7721 11.6661 21.673 11.6421C21.5478 11.6119 21.489 11.5851 21.4171 11.4766Z" fill="#D4D4CC"/>
<path id="Vector_177" d="M23.5155 30.6763C23.6855 30.7761 23.9312 31.1526 24.0799 31.3318C23.7761 31.2917 23.6155 30.9326 23.5155 30.6763Z" fill="#D4D4CC"/>
<path id="Vector_178" d="M16.1936 29.1645C16.3665 29.2515 16.3145 29.6846 16.3247 29.8733C16.2713 29.8752 16.2922 29.8767 16.2394 29.853C16.1561 29.7126 16.1888 29.3411 16.1936 29.1645Z" fill="#D4D4CC"/>
<path id="Vector_179" d="M19.0397 23.4847C19.1539 23.4886 19.3961 23.4408 19.3936 23.5994C19.3408 23.6693 19.3344 23.6704 19.2568 23.7154L19.2526 23.7621L19.2172 23.7795C19.0856 23.7351 19.0264 23.616 19.0397 23.4847Z" fill="#D4D4CC"/>
<path id="Vector_180" d="M19.1389 15.6624C19.0473 15.6449 18.9712 15.6431 18.9075 15.5808C18.8728 15.4938 18.8755 15.5366 18.8947 15.4483C18.9925 15.3529 19.0194 15.3559 19.1314 15.4051C19.2188 15.4821 19.1932 15.4432 19.2306 15.5513C19.2163 15.629 19.2252 15.6419 19.1389 15.6624Z" fill="#D4D4CC"/>
<path id="Vector_181" d="M19.1314 15.4051C19.2188 15.4821 19.1932 15.4432 19.2305 15.5513C19.2163 15.629 19.2252 15.6419 19.1389 15.6624C19.0803 15.5299 19.0678 15.5287 19.1314 15.4051Z" fill="#D4D4CC"/>
<path id="Vector_182" d="M15.8472 21.159C15.9099 21.2114 16.0387 21.7556 16.0239 21.8522L15.9165 21.9017L15.8921 21.8764C15.8564 21.6938 15.8356 21.3435 15.8472 21.159Z" fill="#D4D4CC"/>
<path id="Vector_183" d="M25.0094 12.6781C25.1271 12.6718 25.2992 12.6672 25.3124 12.8212C25.255 12.8994 25.2599 12.8787 25.1554 12.9229C25.0494 12.9667 24.9357 12.8227 24.9344 12.7136L25.0094 12.6781Z" fill="#D4D4CC"/>
<path id="Vector_184" d="M21.6868 32.7786C21.7406 32.7993 21.7162 32.7842 21.7526 32.8354C21.7245 33 21.4776 33.1025 21.3374 33.157C21.2763 33.1186 21.2999 33.145 21.2743 33.0676C21.3038 33.0127 21.5421 32.9023 21.6606 32.8013L21.6868 32.7786Z" fill="#D4D4CC"/>
<path id="Vector_185" d="M19.4911 23.1707C19.5414 23.1739 19.5168 23.169 19.5634 23.199C19.5676 23.2448 19.5645 23.2936 19.5393 23.3322C19.4487 23.4713 19.3935 23.4246 19.29 23.369C19.189 23.3587 19.1778 23.3626 19.1246 23.2973C19.2147 23.181 19.3299 23.2643 19.4911 23.1707Z" fill="#D4D4CC"/>
<path id="Vector_186" d="M19.4365 22.9239C19.4201 22.856 19.4111 22.8481 19.436 22.7827C19.543 22.7237 19.7117 22.8444 19.7727 22.9431C19.7765 23.0464 19.7504 23.0491 19.6571 23.0839C19.5786 23.0575 19.544 23.001 19.5064 22.9269L19.4365 22.9239Z" fill="#D4D4CC"/>
<path id="Vector_187" d="M18.4471 24.5337C18.5169 24.6372 18.5628 24.6897 18.5861 24.8137L18.5681 24.8135C18.5327 24.7925 18.5213 24.7859 18.4833 24.7705C18.4834 24.8545 18.4912 24.9287 18.4616 25.0059C18.4053 24.9607 18.3262 24.7686 18.2901 24.6912C18.3419 24.6182 18.3657 24.5676 18.4471 24.5337Z" fill="#D4D4CC"/>
<path id="Vector_188" d="M23.3753 13.6835C23.4982 13.7025 23.5754 13.7213 23.6335 13.8385C23.6359 13.9359 23.6484 13.8937 23.6047 13.9721C23.488 13.96 23.4104 13.9678 23.3352 13.8923C23.3209 13.8093 23.3462 13.7666 23.3753 13.6835Z" fill="#D4D4CC"/>
<path id="Vector_189" d="M22.6567 12.5285L22.7224 12.543C22.8212 12.6297 22.8221 12.8578 22.7404 12.9597L22.6694 12.9391C22.5667 12.8352 22.5811 12.6446 22.6567 12.5285Z" fill="#D4D4CC"/>
<path id="Vector_190" d="M24.2038 36.9038L24.2689 36.9597C24.2129 37.2173 24.2329 37.2288 24.1096 37.4722L24.0755 37.478L24.0817 37.5027L24.1052 37.4714L24.0741 37.4443C24.0793 37.2827 24.1014 37.0327 24.2038 36.9038Z" fill="#D4D4CC"/>
<path id="Vector_191" d="M21.5698 33.7261C21.6416 33.7686 21.7134 33.863 21.7196 33.9487C21.6872 34.0449 21.6962 34.0151 21.5893 34.0847L21.5486 34.0957C21.47 33.936 21.4431 33.8516 21.5698 33.7261Z" fill="#D4D4CC"/>
<path id="Vector_192" d="M17.6173 18.1923C17.6278 18.198 17.6383 18.2037 17.6488 18.2094C17.5814 18.2983 17.1524 18.4029 17.0242 18.4399L16.9865 18.4312L16.9744 18.3859C17.0306 18.3066 17.4967 18.2202 17.6173 18.1923Z" fill="#D4D4CC"/>
<path id="Vector_193" d="M23.4229 12.8872C23.5132 12.9097 23.5349 12.9124 23.6154 12.9555C23.6727 13.0532 23.6538 13.0481 23.6502 13.1715C23.5269 13.1104 23.4567 13.1213 23.364 13.0589C23.3494 12.9716 23.3635 12.9874 23.4229 12.8872Z" fill="#D4D4CC"/>
<path id="Vector_194" d="M18.0207 22.8398C18.1659 22.8689 18.4177 23.1122 18.4362 23.2461C18.2796 23.3052 18.0688 22.9656 18.0207 22.8398Z" fill="#D4D4CC"/>
<path id="Vector_195" d="M30.712 24.604C30.8072 24.7168 31.0401 25.1501 31.0787 25.2966L31.0187 25.311C30.9186 25.2402 30.7388 24.7397 30.712 24.604Z" fill="#D4D4CC"/>
<path id="Vector_196" d="M21.7284 12.0376C22.0032 12.0503 22.3146 12.2086 22.3657 12.5016C22.1079 12.2445 22.0216 12.2291 21.7284 12.0376Z" fill="#D4D4CC"/>
<path id="Vector_197" d="M21.6011 28.2571C21.6997 28.2786 21.7569 28.2915 21.8202 28.3604C21.8217 28.4573 21.8153 28.4356 21.7623 28.5335C21.6799 28.5029 21.6189 28.4873 21.5508 28.4319C21.5294 28.343 21.5412 28.365 21.6011 28.2571Z" fill="#D4D4CC"/>
<path id="Vector_198" d="M22.4486 11.8285C22.6013 11.9242 22.6854 12.0459 22.5337 12.177L22.4863 12.1718C22.3525 12.0522 22.354 11.9654 22.4486 11.8285Z" fill="#D4D4CC"/>
<path id="Vector_199" d="M21.4809 29.146C21.6911 29.1934 22.0136 29.4043 22.1783 29.5457C21.9362 29.5146 21.652 29.3145 21.4809 29.146Z" fill="#D4D4CC"/>
<path id="Vector_200" d="M19.8605 11.2243L19.8951 11.229L19.9095 11.3751L19.9576 11.3292C20.0093 11.4187 19.9018 11.5128 19.9355 11.6647L19.984 11.7189L19.8921 11.7354L19.8787 11.7489L19.8543 11.746C19.8007 11.6107 19.8432 11.3702 19.8605 11.2243Z" fill="#D4D4CC"/>
<path id="Vector_201" d="M21.3545 28.064C21.4379 28.0776 21.4703 28.0891 21.5148 28.1458C21.4986 28.2283 21.4326 28.2681 21.3651 28.3271C21.344 28.3391 21.3065 28.3401 21.2787 28.344C21.2414 28.3057 21.2543 28.3228 21.2381 28.2671C21.2568 28.1562 21.2736 28.1443 21.3545 28.064Z" fill="#D4D4CC"/>
<path id="Vector_202" d="M25.7683 35.0823C25.9458 35.2476 25.957 35.2815 25.8698 35.498C25.7243 35.3079 25.6618 35.3101 25.7683 35.0823Z" fill="#D4D4CC"/>
<path id="Vector_203" d="M24.4248 11.6179C24.5347 11.623 24.5843 11.6493 24.6436 11.7438L24.6287 11.7769L24.5452 11.7904C24.4427 11.7939 24.3319 11.8156 24.2569 11.7396C24.2906 11.67 24.3528 11.6524 24.4248 11.6179Z" fill="#D4D4CC"/>
<path id="Vector_204" d="M18.7483 15.0402C18.7795 15.0833 18.8199 15.1906 18.8109 15.2478C18.7529 15.3074 18.7425 15.3219 18.7008 15.3948L18.6907 15.4128C18.635 15.3583 18.6074 15.3068 18.5968 15.2315C18.6221 15.1328 18.6694 15.1076 18.7483 15.0402Z" fill="#D4D4CC"/>
<path id="Vector_205" d="M17.5224 20.6936C17.5934 20.7465 17.6201 20.9303 17.5889 21.0102L17.5372 21C17.4641 20.9656 17.4104 20.9529 17.3762 20.8828C17.386 20.8116 17.4676 20.7483 17.5224 20.6936Z" fill="#D4D4CC"/>
<path id="Vector_206" d="M20.5116 24.1391C20.6321 24.1972 20.7692 24.3296 20.7408 24.4727C20.5617 24.4622 20.4542 24.3126 20.5116 24.1391Z" fill="#D4D4CC"/>
<path id="Vector_207" d="M14.865 27.1638C15.0232 27.2861 15.0567 27.4988 15.0419 27.686C14.9169 27.4949 14.8425 27.395 14.865 27.1638Z" fill="#D4D4CC"/>
<path id="Vector_208" d="M16.2881 31.0718C16.4192 31.1523 16.3425 31.4568 16.3232 31.5964C16.2773 31.5659 16.2793 31.5625 16.2473 31.5164C16.2256 31.3462 16.2537 31.2361 16.2881 31.0718Z" fill="#D4D4CC"/>
<path id="Vector_209" d="M16.2855 30.2798C16.3472 30.2956 16.3479 30.2908 16.3913 30.3354C16.4343 30.4465 16.4098 30.5915 16.3998 30.7136C16.2434 30.6777 16.2838 30.4058 16.2855 30.2798Z" fill="#D4D4CC"/>
<path id="Vector_210" d="M19.662 22.4795C19.795 22.6114 19.673 22.6795 19.9247 22.7105L19.9398 22.7378L19.8756 22.8387L19.8272 22.834C19.6662 22.726 19.5821 22.6742 19.662 22.4795Z" fill="#D4D4CC"/>
<path id="Vector_211" d="M22.6382 13.046C22.693 13.049 22.7159 13.0538 22.7689 13.0638C22.8337 13.1498 22.816 13.1858 22.8271 13.3083C22.7449 13.3101 22.7359 13.3137 22.6618 13.2838C22.6165 13.2182 22.634 13.1299 22.6382 13.046Z" fill="#D4D4CC"/>
<path id="Vector_212" d="M24.9657 13.2022C24.9102 13.1359 24.6497 12.7769 24.6419 12.7081L24.6902 12.7144C24.782 12.786 24.9149 13.0109 25.005 13.1288L24.9657 13.2022Z" fill="#D4D4CC"/>
<path id="Vector_213" d="M22.6428 12.201C22.6937 12.2416 22.7154 12.2844 22.7306 12.3459C22.6867 12.446 22.7009 12.4144 22.5876 12.4819C22.5323 12.4548 22.5249 12.4185 22.5131 12.3621C22.5395 12.272 22.565 12.2633 22.6428 12.201Z" fill="#D4D4CC"/>
<path id="Vector_214" d="M21.7127 33.6055C21.872 33.6348 21.9471 33.7671 21.8702 33.9175C21.74 33.8618 21.6871 33.7378 21.7127 33.6055Z" fill="#D4D4CC"/>
<path id="Vector_215" d="M24.1493 13.9192C24.274 13.938 24.3971 13.9334 24.4605 14.0517L24.4363 14.0939C24.3106 14.0636 24.1846 14.0859 24.1143 13.9949L24.1493 13.9192Z" fill="#D4D4CC"/>
<path id="Vector_216" d="M32.1748 20.7491L32.1907 20.7728C32.1853 20.8815 31.9968 21.0826 31.9211 21.1722C31.8293 21.0392 32.0759 20.849 32.1748 20.7491Z" fill="#D4D4CC"/>
<path id="Vector_217" d="M20.4151 24.4025C20.4929 24.4583 20.5032 24.4644 20.563 24.5371C20.5765 24.6304 20.5761 24.5967 20.5129 24.6973C20.4363 24.6372 20.4263 24.6301 20.3676 24.5542C20.355 24.4597 20.3497 24.4978 20.4151 24.4025Z" fill="#D4D4CC"/>
<path id="Vector_218" d="M22.2104 11.6294C22.2864 11.6646 22.3061 11.6694 22.3666 11.7246C22.368 11.8032 22.3588 11.7855 22.2879 11.8652C22.2526 11.8987 22.2735 11.8862 22.2185 11.8912C22.1331 11.8046 22.1747 11.722 22.2104 11.6294Z" fill="#D4D4CC"/>
<path id="Vector_219" d="M32.4737 18.0276C32.6851 18.0716 32.8783 18.1333 33.0844 18.1958C32.8104 18.1635 32.5679 18.1253 32.2959 18.0784C32.3887 18.0713 32.3958 18.0737 32.4737 18.0276Z" fill="#D4D4CC"/>
<path id="Vector_220" d="M15.8632 30.1328C16.0295 30.21 15.9715 30.3787 15.9468 30.5283C15.9082 30.531 15.9282 30.5337 15.8877 30.4995C15.8553 30.3882 15.8637 30.2517 15.8632 30.1328Z" fill="#D4D4CC"/>
<path id="Vector_221" d="M21.9501 28.4634C22.0079 28.4839 22.0586 28.5037 22.1154 28.5271C22.1503 28.5964 22.1387 28.5754 22.1142 28.6733C22.0309 28.6516 21.9906 28.6443 21.9146 28.606C21.8946 28.532 21.902 28.5544 21.9501 28.4634Z" fill="#D4D4CC"/>
<path id="Vector_222" d="M20.3492 24.7195C20.4189 24.7334 20.3945 24.7153 20.4305 24.7666C20.4106 24.8394 20.3225 24.9124 20.2655 24.9692C20.2032 24.9177 20.2205 24.9492 20.2038 24.8772C20.2343 24.8005 20.2831 24.7732 20.3492 24.7195Z" fill="#D4D4CC"/>
<path id="Vector_223" d="M18.654 23.4915C18.7262 23.5173 18.7297 23.5136 18.7837 23.5716C18.7894 23.6609 18.7753 23.652 18.7277 23.7459C18.6688 23.7339 18.681 23.7288 18.6315 23.6744C18.6132 23.5611 18.6106 23.6081 18.654 23.4915Z" fill="#D4D4CC"/>
<path id="Vector_224" d="M22.6727 13.447C22.7123 13.4119 22.7726 13.4145 22.8091 13.4528C22.8457 13.4912 22.8452 13.5516 22.8081 13.5894C22.783 13.6151 22.7458 13.625 22.7112 13.6153C22.6766 13.6055 22.6501 13.5776 22.642 13.5426C22.634 13.5075 22.6457 13.4709 22.6727 13.447Z" fill="#D4D4CC"/>
<path id="Vector_225" d="M20.735 26.0896C20.8196 26.1172 20.7891 26.0925 20.8373 26.1548C20.8099 26.2231 20.7416 26.2551 20.6775 26.2966C20.6635 26.3054 20.6343 26.3108 20.6163 26.3154L20.6075 26.2834C20.636 26.199 20.6788 26.158 20.735 26.0896Z" fill="#D4D4CC"/>
<path id="Vector_226" d="M22.1638 36.502L22.1942 36.4724C22.2561 36.6067 22.3745 36.6724 22.4023 36.7693C22.2626 36.7627 22.1925 36.6221 22.1638 36.502Z" fill="#D4D4CC"/>
<path id="Vector_227" d="M24.2038 36.9038C24.328 36.7898 24.2509 36.5669 24.3459 36.4399L24.366 36.4526C24.3649 36.5779 24.3057 36.8342 24.2689 36.9597L24.2038 36.9038Z" fill="#D4D4CC"/>
<path id="Vector_228" d="M21.2012 27.918L21.2711 27.946L21.2652 27.9836C21.1871 28.0334 21.1578 28.0564 21.0885 28.1182L21.0809 28.1316L21.0597 28.1091C21.0967 28.0103 21.1238 27.9919 21.2012 27.918Z" fill="#D4D4CC"/>
<path id="Vector_229" d="M19.4365 22.9239L19.5064 22.9269C19.447 23.028 19.4671 23.0293 19.3796 23.0776L19.3421 23.0622L19.3468 22.9969C19.3768 22.9768 19.3839 22.9709 19.4122 22.9458L19.4365 22.9239Z" fill="#D4D4CC"/>
<path id="Vector_230" d="M20.7093 18.1872L20.7556 18.1925C20.7572 18.2669 20.7648 18.3092 20.7344 18.3774C20.698 18.3215 20.7088 18.2573 20.7093 18.1872Z" fill="#D4D4CC"/>
<path id="Vector_231" d="M7.35107 33.3972C7.86795 33.5022 8.34404 33.5977 8.864 33.6797C8.85157 34.0142 8.81431 34.3699 8.78464 34.7051C8.29679 35.009 7.65589 35.3066 7.11146 35.4946C5.96772 35.8892 4.84683 36.3059 3.81025 36.9412L3.92515 36.4707C4.42854 36.1768 4.68211 36.1025 5.18246 35.8748C4.74359 35.9592 4.41621 36.0417 3.99789 36.2178C4.09207 35.8074 4.23242 35.2551 4.36168 34.8508C4.47813 34.8296 4.5954 34.8066 4.7128 34.792L4.71004 34.7148C4.58429 34.7085 4.45901 34.7046 4.33424 34.6885C5.19033 34.4985 6.02497 34.1785 6.80637 33.7695C6.99326 33.6719 7.17644 33.5142 7.35107 33.3972Z" fill="#1A1A19"/>
<path id="Vector_232" d="M7.6972 33.6736C8.56542 33.6262 8.65596 34.3254 7.72469 34.5622C6.81977 34.6313 6.73897 33.8135 7.6972 33.6736Z" fill="#D4D4CC"/>
</g>
</svg>
