<svg width="100%" height="100%" overflow="visible" viewBox="0 0 40.4591 50" fill="none" xmlns="http://www.w3.org/2000/svg">
<g id="aicanvas-terminator">
<path id="Vector" d="M22.3241 4.64868C22.6749 4.6115 23.7599 4.67393 24.1288 4.70066C26.3645 4.85169 28.5826 5.19856 30.7577 5.73733C30.9808 5.97669 31.866 7.28604 31.9248 7.57666C32.1006 8.44488 31.5278 9.61309 31.1088 10.3313C31.7588 9.80198 32.24 9.09419 32.493 8.29505C32.4183 7.90462 32.1743 7.36365 32.0415 6.95662C32.3489 7.23696 32.8253 7.8032 33.0314 8.15977C33.0402 9.01922 32.9994 10.0952 32.4031 10.7566L32.8153 10.743C33.0827 11.0504 33.4509 12.0407 33.4602 12.465C33.4738 13.0941 32.9017 14.0648 32.8912 14.6965C32.882 15.2454 33.1916 16.1446 33.2968 16.6888C33.4768 17.3473 33.5715 17.4889 33.3798 18.1417C33.875 18.3063 34.7455 18.607 35.1593 18.8978C35.1483 19.2098 35.1208 19.5293 35.0529 19.8341C34.9628 19.9227 34.8207 20.0377 34.7211 20.1265C34.5001 20.9284 34.3802 22.2412 33.8457 22.9718C33.6252 23.2732 33.1566 23.2943 32.8024 23.3214C32.8031 23.4897 32.8089 23.7771 32.7853 23.9346C32.6705 24.6982 31.9956 25.7449 31.8205 26.4326C31.5456 27.512 31.2829 28.6917 31.0595 29.7825C30.9518 30.3084 30.849 30.8355 30.7508 31.363C30.7157 31.5535 30.6764 31.7605 30.649 31.9512C30.5343 32.7532 30.5006 33.3945 29.5832 33.6179C29.7441 33.814 30.5924 34.9414 30.7064 35.0132C31.9519 35.7937 33.5808 36.2395 34.5929 37.3364C34.8593 37.625 34.7897 38.1631 34.7203 38.5071C34.9789 39.1572 35.1398 39.6658 35.173 40.3755C35.1996 40.9439 35.1349 40.9192 34.8275 41.3667C34.0476 42.5012 32.9879 43.345 31.7903 44.0051C31.2194 43.4775 30.5816 42.7788 30.0151 42.2117C29.5639 41.7632 29.1159 41.312 28.6705 40.8577C28.357 40.5352 28.0139 40.1936 27.7558 39.8281C28.1529 39.5188 28.8646 39.2898 29.3827 39.2791C29.9292 39.2678 32.7967 40.2502 33.0736 40.0212C33.2514 39.6411 32.9852 39.396 32.7577 39.1035C31.4636 37.4407 30.5465 35.5239 29.0387 34.03C29.2985 34.4656 29.7219 35.188 29.9768 35.6116C30.2857 36.1248 32.763 39.3023 32.6805 39.6397C32.4403 39.7869 30.6302 39.2275 30.2713 39.1514C30.0908 39.1133 29.5373 38.8992 29.3867 38.9136C28.7828 38.9712 27.9692 39.2236 27.4213 39.4558C27.2875 39.3176 27.0385 38.9246 26.9213 38.7488C27.0988 39.1865 27.1601 39.6655 27.4291 40.0945C27.8108 40.7461 28.4854 41.1751 28.9813 41.7124C29.7658 42.5618 30.6488 43.3491 31.4394 44.1809C31.2848 44.2622 31.1566 44.3218 30.9965 44.3919C30.974 44.1843 30.9581 44.0269 30.8236 43.8535C30.7293 43.7297 30.5892 43.6494 30.4349 43.6306C30.2622 43.6104 30.0886 43.6587 29.9509 43.7649C29.5835 44.0508 29.6247 44.5125 29.9033 44.8416C28.4427 45.3804 26.9149 45.7161 25.363 45.8391C25.4609 45.259 25.5092 44.5501 25.5725 43.9551C25.6481 43.2427 25.7368 42.4714 25.7258 41.7576C25.7207 41.429 25.3954 40.8289 25.4218 40.5093C25.4396 40.2971 25.5776 39.8704 25.6423 39.6528C25.7688 39.2415 25.8884 38.8276 26.0007 38.4121C26.2764 37.3801 26.4817 36.3718 26.7203 35.3347C26.3685 35.8679 25.9167 36.4468 25.5512 36.9717C25.4225 37.1565 24.7889 38.0601 24.6722 38.134C24.1896 38.439 23.3199 38.8252 22.7781 39.0549L22.783 39.4082C22.0093 38.605 21.6645 38.1213 21.0736 37.1843L19.9822 35.4558L16.9887 30.7747C16.3473 29.7835 15.4593 28.4016 14.7393 27.4836C14.8353 28.1958 14.851 29.0293 14.9873 29.7356C15.0105 29.8562 15.3575 30.2808 15.4507 30.4121L16.7071 32.1746C17.2127 32.8892 17.689 33.624 18.1348 34.3774C18.5001 34.9836 18.9845 35.7786 19.2622 36.4172C19.6106 37.2185 19.8102 38.0005 20.1904 38.8079C20.5373 39.4998 21.1335 40.437 21.5425 41.1274L24.3659 45.8948C22.8178 45.9338 21.2696 45.8223 19.7431 45.5613C19.5106 45.5212 19.0489 45.4553 18.8491 45.3933C18.6806 45.3403 18.5416 45.22 18.4648 45.061C18.3599 44.8406 18.4397 44.6506 18.5103 44.4404L18.0336 44.4775C18.1071 44.3374 18.3416 44.0242 18.4468 43.8723C18.0028 44.0857 17.7084 44.2451 17.3487 44.5818C17.7017 44.8267 18.0359 45.0464 18.3734 45.3142C17.7857 45.1533 16.9893 45.0303 16.4521 44.7881C16.1868 44.6685 15.3949 43.9517 15.2264 43.7156C15.4981 43.2893 15.9084 42.9268 16.2471 42.5513C16.7281 42.0181 19.4309 39.0537 19.428 38.6206C19.4272 38.5005 19.3535 38.4104 19.2694 38.3325C18.996 38.0796 18.4179 37.8235 18.0409 37.8313C17.6363 37.8396 17.1775 38.0254 16.7994 38.1648C16.1169 38.4236 15.4426 38.7031 14.7773 39.0032C13.8323 39.4292 12.7393 40.0269 11.7009 40.0867C11.4906 39.9519 11.3738 39.8093 11.3269 39.5588C11.1552 38.6409 11.0888 37.6668 11.0004 36.7385C10.8929 35.5313 10.7348 34.3289 10.5264 33.1345C10.4617 32.759 10.3727 32.2737 10.2624 31.9109C10.0103 31.0815 9.85459 30.5098 9.85281 29.6328C9.75653 29.717 9.70531 29.7798 9.62285 29.8772C9.64956 30.2573 9.74848 30.6926 9.82104 31.0723C9.93869 31.6824 10.0505 32.2937 10.1566 32.9058C10.4894 34.8342 10.7254 36.7781 10.8637 38.73C10.8985 39.1936 10.8704 39.9998 11.227 40.3423C11.3811 40.4902 11.5687 40.522 11.7744 40.4951C12.3518 40.4197 12.9614 40.0957 13.492 39.864C14.4527 39.4448 17.187 38.217 18.1165 38.2144C18.4967 38.2131 18.8656 38.4634 19.127 38.7188C18.8854 39.273 18.4341 39.6182 18.0355 40.0618C17.0168 41.1956 15.9486 42.3069 14.9574 43.4634C14.655 43.8164 14.9525 44.1475 15.2215 44.3945C14.4616 44.1777 13.5722 43.8359 12.8409 43.5381C11.2507 42.8965 9.70343 42.1533 8.20854 41.3135C7.95038 41.1702 7.35328 40.8552 7.14581 40.6719C6.89405 40.4509 6.72798 39.7756 6.53416 39.5652C6.0529 39.043 5.62841 38.3445 5.15594 37.8484C4.99215 37.8833 4.79266 37.9407 4.62758 37.9832C5.79283 38.8257 5.8664 39.1189 6.5807 40.3445C6.37342 40.221 5.64282 39.7695 5.50232 39.6272C5.02956 39.1487 4.61676 38.6047 4.07033 38.1841C3.99 38.2534 3.90554 38.3438 3.83007 38.4202C3.7355 38.3452 3.59083 38.2546 3.48691 38.1853C3.5273 37.9944 3.56504 37.8008 3.61918 37.6133C4.58424 36.9587 5.66416 36.4263 6.72884 35.9509C7.42175 35.6416 8.43581 35.2783 9.05234 34.8586C9.11571 34.5732 9.13114 33.8533 9.12931 33.5564C8.53321 33.4641 7.90767 33.3494 7.32537 33.1939C7.23208 33.2407 7.13924 33.3062 7.05002 33.3621C6.26997 33.8521 5.3473 34.1741 4.46711 34.4326C4.51521 34.2683 4.56024 34.0569 4.60138 33.8872C5.34727 33.6252 6.13196 33.3919 6.79762 32.9544C6.93443 32.8645 7.07151 32.7776 7.21247 32.6943C7.48538 32.721 7.71483 32.7849 7.9808 32.8499C8.41638 32.562 9.05327 32.1233 9.42961 31.7883C9.35451 31.3618 9.04138 29.9812 9.07632 29.6379C9.09185 29.4854 10.2263 28.3079 10.4272 28.0242C10.7665 27.5449 11.1496 26.9917 11.4731 26.4797C11.615 26.2551 11.8194 25.9578 11.9892 25.7481C12.1022 25.6084 12.3916 25.4458 12.5544 25.3472C12.5753 25.033 12.5469 24.6155 12.5306 24.3003C11.7362 23.662 11.1186 22.8311 10.7364 21.8865C10.3301 20.8717 10.3863 19.6226 10.6995 18.5835C10.7636 18.3709 10.8851 18.0984 10.9734 17.8908C10.8334 17.1449 10.1053 14.2847 10.0327 13.6187C9.98671 13.1969 11.4278 10.8761 11.7599 10.3642C11.4015 10.3919 11.0877 10.468 10.7393 10.5516C11.1782 10.0439 12.0038 9.42678 12.5556 9.02029C13.1955 8.5437 13.8485 8.08504 14.514 7.64488C14.1258 7.61787 13.7111 7.63396 13.3202 7.64202C15.4852 6.23508 17.992 5.44964 20.5085 4.94221C21.0636 4.8303 21.7607 4.69636 22.3241 4.64868Z" fill="#1A1A19"/>
<path id="Vector_2" d="M12.1825 17.4849C12.3158 17.4797 12.4822 17.51 12.6145 17.5642C13.128 17.7804 14.1277 18.5522 14.3771 19.0683C14.7593 19.8594 15.0769 20.9155 15.4415 21.7364C15.5259 21.7732 15.6294 21.8052 15.718 21.8317C16.3657 22.0257 17.0059 22.2726 17.6546 22.4594C17.2637 21.7407 16.9939 21.3879 16.8449 20.5536C16.6775 19.6157 16.5981 19.5614 16.8943 18.6302C17.1137 18.5494 17.5186 18.4572 17.7632 18.3947C18.4798 18.2168 19.1985 18.048 19.9194 17.8886C20.0775 18.0001 20.1289 18.0535 20.257 18.1975C20.3203 19.0852 20.3868 19.9984 20.5942 20.8665C20.6862 21.2512 20.8273 21.541 21.1754 21.7487C22.0527 22.2721 25.3036 22.5903 26.2918 22.3309C27.1864 22.0959 27.687 20.9515 28.021 20.1702C28.0986 19.9887 28.1423 19.7764 28.2461 19.6095C28.3902 19.3777 28.6905 19.2658 28.9432 19.2112C29.1447 19.2553 29.2501 19.3237 29.4235 19.4308C29.5082 19.993 29.6584 20.607 29.7829 21.1614C29.9272 21.8052 30.06 22.4752 30.2671 23.0992C29.2995 23.763 29.3573 23.3666 28.335 23.2104C28.092 23.1732 26.7918 23.531 26.6392 23.6606C26.6395 23.7295 26.6937 23.8028 26.7415 23.8496C26.9327 24.045 28.4768 25.2727 28.6458 25.2112C29.0301 25.0713 30.3631 23.6623 30.6111 23.2294C30.6229 23.2089 30.6129 23.0563 30.6107 23.0225C31.2799 23.2209 31.6142 23.2571 32.3098 23.3438C32.3118 23.5011 32.3223 23.6698 32.2986 23.8253C32.1868 24.5613 31.5336 25.4626 31.3324 26.1858C31.1544 26.8259 31.0355 27.489 30.8985 28.1392C30.7091 29.0366 30.5113 29.9312 30.3443 30.8333C30.2476 31.3547 30.1965 31.9009 30.0742 32.4153C30.042 32.5501 29.9897 32.6782 29.9126 32.7932C29.7851 32.9827 29.5871 33.1033 29.362 33.1399C29.0541 33.1899 24.5452 32.9648 24.2559 32.8838C23.8772 32.7776 23.5002 32.5286 23.1547 32.3416C22.6456 32.0635 22.1346 31.7891 21.6218 31.5178L18.6777 29.9888C18.195 29.7354 17.6852 29.4793 17.2231 29.1909C16.9074 28.9688 16.7385 28.6423 16.6622 28.2769C16.3536 26.7961 15.9677 25.2913 15.7147 23.8022C15.2675 23.3456 14.6814 22.8239 14.2086 22.3674C14.2404 22.0185 14.2958 21.7307 14.3697 21.3906C13.9652 20.5118 12.9636 19.2172 12.129 18.6854C11.5848 18.3387 11.0267 19.8208 10.8654 20.202C10.8578 19.2715 11.1307 17.742 12.1825 17.4849Z" fill="#D4D4CC"/>
<path id="Vector_3" d="M27.236 26.5C27.5773 26.4934 27.9907 26.627 28.3386 26.6733C28.6038 26.7087 28.9281 26.7012 29.1722 26.7798C29.4723 26.8762 29.6667 27.3752 29.7988 27.6619C29.4162 27.4871 29.1727 27.2148 28.7364 27.1941C28.1895 27.1682 27.6432 27.0855 27.1017 27.0093C26.4688 26.9236 25.8471 27.0239 25.2399 27.2063C24.8121 27.3345 24.7076 27.4104 24.2492 27.4373C25.0099 26.7241 26.2375 26.5532 27.236 26.5Z" fill="#1A1A19"/>
<path id="Vector_4" d="M26.6917 28.2761C27.077 28.2593 28.3435 28.2905 28.659 28.543C28.7349 28.6038 28.7091 28.8933 28.7047 29.0076C28.5157 28.999 28.3008 28.9766 28.1101 28.9612C27.9792 28.9568 27.8496 28.946 27.7194 28.9307C27.1303 28.8621 26.5328 28.8289 25.9448 28.7522C26.1668 28.5891 26.4375 28.3494 26.6917 28.2761Z" fill="#1A1A19"/>
<path id="Vector_5" d="M20.5996 9.92033C20.9283 9.88222 21.7319 9.96589 22.0856 9.99448C24.6602 10.2027 26.8206 10.8103 29.1102 11.9998C29.6855 11.7941 30.6014 11.5221 31.1911 11.3774C32.009 12.9456 32.2876 14.6215 32.6891 16.3289C32.7364 16.531 32.9166 17.0412 32.9237 17.1884C32.8429 17.1975 32.7994 17.1558 32.6739 17.178C32.0842 17.2826 31.5004 17.4388 30.9169 17.572C30.6151 17.6409 30.2849 17.747 29.9836 17.7934C29.8359 17.8161 29.5375 17.7183 29.3837 17.6735C29.4738 17.2523 29.3661 17.0711 29.224 16.6665C29.1644 16.8792 29.1005 17.4639 28.8912 17.5319C28.4334 17.6806 27.6289 17.3279 27.173 17.1822C25.9609 16.8428 24.7418 16.5304 23.516 16.2452C23.3059 16.1949 22.3767 15.9496 22.2117 15.9741C21.5937 16.0659 21.3204 16.5536 20.5931 16.5096C20.2913 16.4913 19.4748 16.7362 19.1278 16.8263L17.1265 17.3449C17.2225 16.8225 17.1959 16.7098 17.5727 16.3028C18.2781 15.5409 19.0017 14.8284 19.7973 14.159C19.6677 13.3713 19.3953 12.5488 19.1699 11.7841C19.0252 11.2928 19.0086 11.3009 18.5847 11.0437C19.6922 10.6763 21.3972 10.5073 22.5558 10.6449C22.1139 10.423 21.6541 10.2385 21.1814 10.0932C20.9971 10.0347 20.7992 9.99135 20.6204 9.9279L20.5996 9.92033Z" fill="#D4D4CC"/>
<path id="Vector_6" d="M22.9008 6.50454C23.2843 6.47319 24.6536 6.47404 25.0135 6.56154C25.8244 6.75879 27.1092 7.19424 27.7995 7.69011C28.1067 7.91089 28.4868 8.42807 28.6961 8.74345C27.3263 7.6581 26.5762 7.44594 24.8956 7.07075C25.8212 7.78984 26.144 8.03718 26.8126 8.99077C26.8844 9.08457 26.9459 9.1924 27.0077 9.29375C26.5926 9.01716 25.5209 8.40093 25.0604 8.2884C23.7711 7.97314 22.0279 7.9018 20.7071 7.87636C21.3622 7.7488 22.6398 7.53156 23.2834 7.56404C23.5478 7.57739 24.6189 7.82969 24.918 7.89851C23.9069 7.03879 23.5471 6.99282 22.3744 6.55766C22.519 6.52802 22.7476 6.51672 22.9008 6.50454Z" fill="#D4D4CC"/>
<path id="Vector_7" d="M26.5779 5.5908C26.7791 5.58672 27.1454 5.63748 27.3573 5.66258C28.104 5.7511 28.8446 5.87437 29.5785 6.0375C29.8867 6.10596 30.2373 6.16214 30.5364 6.2522C30.8497 6.57881 31.2494 7.37351 31.3817 7.81629C31.0353 7.38726 30.6568 6.99773 30.2068 6.67815C30.3091 6.93657 30.4199 7.19727 30.4932 7.4648C30.723 8.20227 30.4473 8.84937 30.2083 9.56951C30.1995 9.07754 30.189 8.3803 29.9907 7.93538C29.8957 7.72283 29.307 6.8168 29.1273 6.69077C28.3989 6.18001 27.4015 5.91597 26.5779 5.5908Z" fill="#D4D4CC"/>
<path id="Vector_8" d="M16.6968 43.012C17.0983 42.9592 17.4662 43.2424 17.518 43.644C17.5698 44.0457 17.2857 44.4128 16.884 44.4636C16.4836 44.5144 16.1176 44.2314 16.066 43.8313C16.0144 43.4309 16.2966 43.0645 16.6968 43.012Z" fill="#D4D4CC"/>
<path id="Vector_9" d="M12.1158 38.2859C12.4544 38.2502 12.7804 38.3335 12.9283 38.675C12.995 38.8262 12.993 38.9985 12.9231 39.1479C12.8202 39.3713 12.6531 39.4509 12.4428 39.5332C12.1036 39.5789 11.7635 39.5032 11.6194 39.1531C11.5559 38.9985 11.5612 38.8245 11.634 38.6741C11.7378 38.4556 11.9048 38.3647 12.1158 38.2859Z" fill="#D4D4CC"/>
<path id="Vector_10" d="M20.602 16.9227C22.0798 16.8178 23.6253 16.7819 25.0795 17.1197C24.9928 17.1841 25.034 17.1678 24.9205 17.1761C24.1174 17.0453 21.8559 16.8427 21.022 17.2025C20.8155 17.2916 20.7864 18.3786 20.7332 18.6938C20.6806 18.244 20.7563 18.1333 20.503 17.7263C20.5225 17.4602 20.5652 17.1875 20.602 16.9227Z" fill="#D4D4CC"/>
<path id="Vector_11" d="M25.2177 17.5808C25.4572 17.6148 25.6955 17.6566 25.9324 17.7065C25.6777 18.0292 24.9933 18.7525 24.6854 19.0172C24.5647 19.0509 24.2032 19.0866 24.0622 19.1039C24.3289 18.7291 24.6175 18.3648 24.888 17.9924C24.9918 17.8497 25.0958 17.7087 25.2177 17.5808Z" fill="#D4D4CC"/>
<path id="Vector_12" d="M32.4534 18.6459C32.6243 18.6761 32.7716 18.7128 32.9388 18.7549C32.7574 18.9995 32.1975 19.7977 31.9624 19.928C31.8332 19.9659 31.6748 19.9982 31.5414 20.0288C31.7285 19.6841 32.211 18.9655 32.4534 18.6459Z" fill="#D4D4CC"/>
<path id="Vector_13" d="M31.3212 38.1907C31.6232 38.2227 31.853 38.3635 32.0159 38.6252C32.1641 38.8635 32.1336 39.0435 31.886 39.1792C31.4543 39.1299 30.7484 38.3828 31.3212 38.1907Z" fill="#D4D4CC"/>
<path id="Vector_14" d="M28.3084 18.1332C28.5662 18.192 29.6838 18.0906 29.7695 18.4033L29.7099 18.4967C29.6415 18.5027 29.5707 18.46 29.498 18.4334C29.1366 18.3014 28.8517 18.2924 28.4874 18.4146L28.3084 18.1332Z" fill="#D4D4CC"/>
<path id="Vector_15" d="M30.9149 18.1471C31.5844 18.0876 32.4066 18.1958 33.0343 18.4387C32.8815 18.4171 32.7064 18.382 32.5523 18.3551C31.8135 18.2298 31.2499 18.2091 30.5159 18.3635C30.6663 18.2435 30.7372 18.2083 30.9149 18.1471Z" fill="#D4D4CC"/>
<path id="Vector_16" d="M25.0794 17.1197C25.5138 17.1902 25.6249 17.2204 26.04 17.3478C25.9951 17.3541 25.0365 17.1946 24.9205 17.1761C25.034 17.1678 24.9928 17.1841 25.0794 17.1197Z" fill="#D4D4CC"/>
<path id="Vector_17" d="M7.36183 33.3984C7.85733 33.5181 8.35785 33.6157 8.86199 33.6909L8.78698 34.6973C8.16288 35.1777 6.73177 35.6157 5.98263 35.9006C5.14869 36.2178 4.57377 36.5029 3.80096 36.9351C3.84064 36.8057 3.87497 36.6416 3.90669 36.5071C4.08335 36.3096 4.87307 36.0144 5.15558 35.8845C4.74009 35.95 4.37259 36.0776 3.98187 36.2241L4.33321 34.8787C4.51609 34.8342 4.81484 34.8 4.95846 34.7478L4.94527 34.7297C4.74141 34.7185 4.5378 34.7034 4.33453 34.6843C5.41979 34.4636 6.44939 34.0261 7.36183 33.3984Z" fill="#1A1A19"/>
<path id="Vector_18" d="M7.56114 33.6946C7.71546 33.6843 7.99477 33.6592 8.12108 33.7354C8.71346 34.0925 8.18593 34.4177 7.83584 34.5452C6.98781 34.7319 6.62675 33.9507 7.56114 33.6946Z" fill="#D4D4CC"/>
</g>
</svg>
